<?xml version="1.0" encoding="UTF-8" standalone="no"?>
<!-- Created with Inkscape (http://www.inkscape.org/) -->

<svg
   xmlns:dc="http://purl.org/dc/elements/1.1/"
   xmlns:cc="http://creativecommons.org/ns#"
   xmlns:rdf="http://www.w3.org/1999/02/22-rdf-syntax-ns#"
   xmlns:svg="http://www.w3.org/2000/svg"
   xmlns="http://www.w3.org/2000/svg"
   xmlns:sodipodi="http://sodipodi.sourceforge.net/DTD/sodipodi-0.dtd"
   xmlns:inkscape="http://www.inkscape.org/namespaces/inkscape"
   width="1790.0945"
   height="813.36218"
   viewBox="0 0 1790.0945 813.3622"
   id="svg2"
   version="1.1"
   inkscape:version="0.91 r13725"
   sodipodi:docname="logo.svg">
  <defs
     id="defs4" />
  <sodipodi:namedview
     id="base"
     pagecolor="#00ffff"
     bordercolor="#666666"
     borderopacity="1.0"
     inkscape:pageopacity="0"
     inkscape:pageshadow="2"
     inkscape:zoom="0.35"
     inkscape:cx="1840.7994"
     inkscape:cy="452.68608"
     inkscape:document-units="px"
     inkscape:current-layer="layer1"
     showgrid="false"
     units="px"
     inkscape:window-width="2560"
     inkscape:window-height="1377"
     inkscape:window-x="-8"
     inkscape:window-y="-8"
     inkscape:window-maximized="1" />
  <metadata
     id="metadata7">
    <rdf:RDF>
      <cc:Work
         rdf:about="">
        <dc:format>image/svg+xml</dc:format>
        <dc:type
           rdf:resource="http://purl.org/dc/dcmitype/StillImage" />
        <dc:title></dc:title>
      </cc:Work>
    </rdf:RDF>
  </metadata>
  <g
     inkscape:label="Vrstva 1"
     inkscape:groupmode="layer"
     id="layer1"
     transform="translate(0,-238.99752)">
    <g
       id="g4192"
       transform="translate(317.2082,101.05586)">
      <path
         style="fill:#101134;fill-opacity:1"
         d="m 1136.5131,943.87165 c -11.2055,-1.6494 -53.6505,-12.2282 -60.6507,-15.1163 l -7.209,-2.9742 -4.4904,3.0895 c -3.5246,2.425 -8.474,4.0503 -23.0132,7.5573 l -18.5228,4.4678 -18.8941,-4.4498 c -10.39166,-2.4474 -25.22746,-6.2225 -32.96846,-8.3891 -13.1662,-3.6851 -14.6728,-4.3673 -23.3483,-10.5735 l -9.274,-6.6342 -3.0353,3.4096 c -3.2174,3.6142 -19.9484,16.0457 -23.7697,17.6615 -1.2461,0.5269 -9.9157,2.7323 -19.2657,4.901 l -17,3.9431 -18.3555,-4.3216 c -14.4543,-3.4031 -19.2364,-4.9501 -22.5,-7.2787 -2.2795,-1.6265 -6.1695,-4.3639 -8.6445,-6.0833 l -4.5,-3.1261 -5.5,1.4142 c -3.025,0.7779 -24.4825,3.5616 -47.6833,6.1862 -47.2637,5.3468 -42.0668,5.4212 -67.8167,-0.9714 -11.7931,-2.9277 -13.6629,-3.7112 -20.1397,-8.4387 -3.9268,-2.8662 -7.6593,-5.2113 -8.2944,-5.2113 -0.6351,0 -6.8723,2.1804 -13.8603,4.8453 -7.1234,2.7165 -20.8119,6.7342 -31.15612,9.1447 l -18.45053,4.2994 -16.54947,-3.7925 c -20.39607,-4.674 -19.46933,-4.3253 -28.01538,-10.5412 l -7.04433,-5.1236 -10.24489,7.4383 c -5.63468,4.0911 -11.14488,7.8927 -12.24488,8.448 -1.1,0.5553 -9.88998,2.883 -19.5333,5.1725 l -17.5333,4.1628 -18.89428,-4.5575 c -17.65222,-4.2578 -113.85892,-34.6242 -115.98912,-36.6104 -2.16857,-2.022 -4.33643,-0.3998 -9.55,7.1462 -4.46116,6.457 -7.27892,9.2362 -14.91824,14.7143 -5.18003,3.7145 -10.37153,7.2803 -11.53667,7.9239 -1.16513,0.6436 -10.05232,3.0359 -19.7493,5.3164 l -17.63087,4.1462 -39.79899,-4.1468 c -33.85471,-3.5274 -42.23415,-4.7331 -56.10323,-8.0727 -12.46952,-3.0025 -17.53416,-3.8004 -21.53348,-3.3924 -2.87607,0.2935 -43.39776,2.5776 -90.04819,5.0759 l -84.81897,4.5424 -17.6472,-4.1501 c -9.70595,-2.2826 -18.42034,-4.5639 -19.36529,-5.0696 -2.84326,-1.5217 -6.82412,-1.2087 -84.39805,6.6355 l -74.71397,7.5549 -17.58494,-4.1355 c -9.67172,-2.2745 -18.4606,-4.604 -19.53084,-5.1768 -1.07024,-0.5728 -6.19479,-4.0996 -11.38789,-7.8374 -8.18717,-5.8928 -10.49215,-8.2593 -17.34394,-17.8067 l -7.90195,-11.0108 -4.39552,-19.3213 -4.39552,-19.3214 -1.07399,-130.8855 -1.07399,-130.8856 3.07901,-12.9517 3.07901,-12.95171 -2.45267,-2.66275 c -1.34897,-1.46451 -5.40834,-6.84323 -9.02083,-11.95273 l -6.56816,-9.28999 -4.08267,-17.05633 c -2.24546,-9.38098 -4.08266,-18.12874 -4.08266,-19.43947 0,-6.95893 8.86866,-39.07774 17.55254,-63.56837 5.1961,-14.65429 9.44746,-27.31626 9.44746,-28.13773 0,-0.82146 -1.34188,-4.36109 -2.98194,-7.86584 -1.64007,-3.50475 -5.34938,-16.04277 -8.24292,-27.86227 -5.18572,-21.18266 -5.26026,-21.70454 -5.21175,-36.49001 0.0489,-14.89771 0.0913,-15.1731 6.22205,-40.38386 4.64385,-19.09638 7.15006,-27.3942 10.11811,-33.5 5.79673,-11.9249 23.01307,-35.63322 33.5442,-46.19314 15.6169,-15.65961 43.6827,-34.18529 60.40733,-39.87371 11.33409,-3.85497 56.72411,-14.36604 67.53671,-15.63963 12.58045,-1.48182 44.18544,-0.63812 55.52722,1.48231 13.69866,2.56107 54.41992,12.52351 63.06984,15.43002 10.24364,3.44202 28.49816,16.06741 33.69996,23.30793 1.92491,2.67934 3.8818,4.63546 4.34864,4.34693 0.46685,-0.28852 2.65419,-3.79513 4.86077,-7.79246 2.20657,-3.99733 7.37069,-11.90679 11.47582,-17.57657 6.55823,-9.05786 8.78643,-11.26418 18.36372,-18.18336 l 10.89985,-7.87466 16.93119,-4.09643 c 9.31216,-2.25304 18.2812,-4.09643 19.9312,-4.09643 1.65,0 10.61904,1.84339 19.9312,4.09643 l 16.93119,4.09643 10.90752,7.88021 c 12.76751,9.22397 13.60869,10.30188 43.36545,55.56999 37.34174,56.80692 38.66006,58.72634 39.3841,57.34157 0.3858,-0.73786 6.87178,-19.34157 14.41328,-41.34157 l 13.71183,-40 7.78914,-10.56133 c 6.6932,-9.07534 9.26905,-11.63983 18.30727,-18.22655 l 10.51814,-7.66522 17.14098,-4.02345 c 9.42753,-2.2129 18.24749,-4.02345 19.5999,-4.02345 1.35241,0 10.18856,1.81435 19.63588,4.0319 l 17.17696,4.03189 11.09358,7.89161 c 10.3708,7.37745 11.97305,9.0042 24.59214,24.96811 7.42421,9.39207 13.9616,17.07649 14.52754,17.07649 0.56594,0 3.37983,-2.6707 6.25308,-5.93488 4.50274,-5.11537 21.59938,-18.52143 27.96458,-21.92798 1.14771,-0.61424 10.08554,-2.98754 19.86184,-5.27401 l 17.77509,-4.15721 16.55966,3.79485 c 9.10781,2.08717 17.53484,4.15302 18.72675,4.59077 1.1919,0.43776 6.82267,4.1492 12.51282,8.24765 9.26292,6.67183 11.17255,8.61396 18.24571,18.55627 4.345,6.1075 8.05831,11.10454 8.2518,11.10454 0.1935,0 7.47986,-5.10531 16.19192,-11.34513 35.39425,-25.35037 49.35455,-31.58736 94.13065,-42.05457 41.7062,-9.74956 49.2175,-9.88881 85.05,-1.57674 38.8319,9.00783 46.2688,11.83724 64.9237,24.70045 27.7005,19.10047 31.8643,23.0748 48.5173,46.30955 15.7597,21.98831 19.7932,31.89184 29.4152,72.22361 7.6117,31.90552 9.082,41.49668 9.082,59.24283 0,17.39221 -1.4722,27.29255 -8.5213,57.3033 -6.4474,27.44929 -10.644,40.66784 -17.4234,54.88075 l -4.8577,10.18406 11.1531,8.31594 c 10.4787,7.81305 12.9546,10.43254 40.9419,43.31595 16.3838,19.25 33.9194,40.625 38.9681,47.5 8.98986,12.24197 9.23596,12.72707 11.92046,23.5 1.5076,6.05 3.5078,14.6 4.4449,19 0.9371,4.4 1.8467,8.17696 2.0213,8.39323 0.1746,0.21628 3.3901,-2.48372 7.1456,-6 8.8922,-8.32598 31.8581,-24.75753 42.5599,-30.45053 11.4931,-6.11398 19.3328,-8.64753 46.1589,-14.9171 26.8558,-6.2765 34.9731,-7.52705 48.8224,-7.52158 12.4934,0.005 22.2737,1.59574 48.5586,7.89825 l 20.381,4.8869 7.9324,-1.89459 c 7.3838,-1.76357 12.6576,-1.89458 76.2682,-1.89458 l 68.336,0 17.3309,4.08803 c 9.532,2.24842 18.2399,4.55715 19.3507,5.13051 1.1109,0.57335 6.409,4.17754 11.7736,8.0093 8.4535,6.03808 10.7607,8.3647 17.3063,17.4524 4.1538,5.76706 7.9106,11.46076 8.3484,12.65266 0.4377,1.19191 2.5036,9.61894 4.5907,18.72675 l 3.7949,16.55965 -4.1946,17.9349 c -3.3663,14.3932 -5.3701,20.5249 -10.147,31.0506 -3.2739,7.2136 -5.9525,13.6019 -5.9525,14.1963 0,0.5943 3.38,5.7642 7.511,11.4885 l 7.5111,10.4079 4.3705,18.4056 4.3705,18.4055 -7.3133,35.4957 c -4.0223,19.5226 -9.1408,43.0726 -11.3744,52.3332 l -4.061,16.8376 -7.6947,10.8893 c -6.7638,9.5722 -8.8414,11.7087 -17.1754,17.6625 -5.2144,3.7252 -10.4879,7.3279 -11.7188,8.0059 -1.2309,0.6781 -9.9394,3.0406 -19.3523,5.25 l -17.1143,4.0172 -74.9039,0 c -71.9877,0 -75.2511,-0.08 -83.8211,-2.0531 l -8.9171,-2.0531 -10.9084,2.5012 c -19.3152,4.4287 -40.3296,5.7711 -55.4667,3.543 z m -161.64536,-227.388 c 0.991,-4.2819 1.5436,-8.0434 1.228,-8.359 -0.3156,-0.3156 -3.0347,1.8565 -6.0424,4.8269 l -5.4686,5.4006 3.2027,3.3043 c 1.7614,1.8174 3.6697,3.1486 4.2406,2.9583 0.5708,-0.1902 1.8487,-3.8493 2.8397,-8.1311 z"
         id="path4206"
         inkscape:connector-curvature="0" />
      <path
         style="fill:#737489;stroke:#101134;stroke-opacity:1"
         d="m 1134.5714,942.42505 c -8.0801,-1.4043 -39.0089,-8.5595 -48,-11.1045 -3.025,-0.8563 -8.3629,-2.6947 -11.8621,-4.0853 l -6.3621,-2.5286 -4.4585,3.1427 c -3.5868,2.5282 -8.069,4.0032 -22.9259,7.5443 l -18.4674,4.4017 -18.712,-4.4342 c -21.34426,-5.0581 -43.76306,-11.1407 -46.71196,-12.6738 -1.1,-0.5719 -5.7094,-3.7039 -10.2432,-6.96 -8.7013,-6.2491 -9.1166,-6.3022 -13.0187,-1.6648 -1.2573,1.4942 -6.7563,5.9084 -12.22,9.8092 l -9.934,7.0925 -18.292,4.4116 -18.2921,4.4117 -18.3616,-4.4279 c -17.4126,-4.1991 -18.7052,-4.6778 -25.009,-9.2628 -9.9452,-7.2335 -9.7515,-7.1705 -17.1396,-5.5779 -6.6961,1.4435 -83.0636,10.4147 -88.655,10.4147 -1.7282,0 -10.948,-1.8532 -20.4885,-4.1183 -16.7745,-3.9825 -17.5933,-4.2956 -24.8388,-9.5 -4.1209,-2.9599 -8.1338,-5.3817 -8.9175,-5.3817 -0.7838,0 -7.3122,2.2148 -14.5075,4.9217 -7.1954,2.7069 -21.1825,6.8225 -31.0825,9.1458 l -18,4.2242 -18,-4.2655 c -17.44748,-4.1345 -18.23743,-4.4324 -25.73482,-9.704 -5.05466,-3.5541 -8.19144,-5.1585 -9.05258,-4.6304 -0.72477,0.4445 -5.95468,4.1475 -11.62203,8.2288 l -10.30428,7.4205 -18.14314,4.2703 -18.14315,4.2702 -18.52033,-4.3612 c -16.20655,-3.8164 -110.09828,-33.3728 -115.93019,-36.4939 -3.49115,-1.8684 -4.62634,-1.0979 -10.74548,7.2937 -4.89615,6.7145 -8.04158,9.7398 -16.29774,15.6753 l -10.23066,7.355 -18.12838,4.3694 -18.12839,4.3694 -39.46718,-4.0982 c -33.24172,-3.4518 -42.14064,-4.7258 -56.41601,-8.0766 -13.32938,-3.1288 -18.14333,-3.8599 -22.54224,-3.4237 -3.07637,0.305 -43.58707,2.5896 -90.02378,5.0769 l -84.43037,4.5223 -17.56963,-4.1727 c -9.66329,-2.2949 -18.69462,-4.7298 -20.06962,-5.4108 -2.08531,-1.0329 -15.35526,0.075 -80,6.6786 l -77.5,7.9168 -18.48678,-4.2875 -18.48677,-4.2874 -10.48597,-7.5408 c -9.2787,-6.6725 -11.37074,-8.771 -18.17068,-18.2269 l -7.6847,-10.6862 -4.30684,-17.2865 -4.30684,-17.2866 -0.27695,-24.5 c -0.15232,-13.475 -0.72225,-73.2092 -1.26651,-132.7427 l -0.98955,-108.24263 3.03935,-12.86808 3.03935,-12.86809 -5.87973,-7.88925 c -12.31071,-16.51817 -11.89031,-15.63876 -16.20083,-33.88925 -2.20835,-9.35 -4.01999,-17.96718 -4.02586,-19.14929 -0.0328,-6.59042 9.01442,-39.16693 17.56494,-63.24668 5.18341,-14.59734 9.42437,-27.29187 9.42437,-28.21005 0,-0.91819 -1.3363,-4.53246 -2.96955,-8.03171 -1.63325,-3.49925 -5.32191,-16.03727 -8.19703,-27.86227 -5.05544,-20.79242 -5.22854,-21.97721 -5.25977,-36 -0.0314,-14.10369 0.11377,-15.11497 5.31141,-37 8.19635,-34.51137 9.4197,-37.32696 26.93849,-62 11.87735,-16.72779 22.0175,-26.88533 38.43411,-38.5 24.83347,-17.56956 31.423,-20.61865 59.74234,-27.64376 36.17572,-8.97402 42.73466,-10.09545 62.11771,-10.62069 10.34624,-0.28036 21.90287,0.007 28,0.69676 15.75169,1.7814 65.73967,13.2895 77.88229,17.92984 7.69731,2.94156 25.64946,16.06763 30.27957,22.13952 2.09631,2.74908 4.20947,4.99833 4.69591,4.99833 0.48643,0 2.71781,-3.32128 4.95862,-7.38061 2.2408,-4.05934 7.4791,-12.18724 11.64067,-18.06199 6.17572,-8.71807 9.0699,-11.78763 15.74586,-16.69997 4.49865,-3.31023 9.97937,-7.05675 12.17937,-8.32562 3.97158,-2.29063 32.83963,-9.53181 38,-9.53181 5.16037,0 34.02842,7.24118 38,9.53181 2.2,1.26887 7.63439,4.98146 12.07642,8.25021 9.86238,7.25741 12.19102,10.43494 50.92358,69.48744 15.4,23.47917 28.46954,42.69866 29.04343,42.70997 0.57388,0.0113 6.84328,-16.96693 13.93199,-37.72943 7.08871,-20.7625 13.69728,-39.67791 14.68571,-42.03425 0.98844,-2.35633 4.98129,-8.74408 8.87302,-14.19499 6.0947,-8.53649 8.4202,-10.86473 16.77086,-16.79063 5.33224,-3.78393 10.28341,-7.22626 11.00259,-7.64962 1.84235,-1.08453 33.89095,-8.58051 36.68546,-8.58051 1.26803,0 10.11333,1.84099 19.65623,4.0911 l 17.35071,4.0911 11,8.08343 c 9.97381,7.32934 12.21276,9.61782 24,24.5309 7.15,9.0461 13.57581,16.67081 14.27959,16.9438 0.70377,0.273 5.43359,-3.4944 10.51071,-8.37199 5.07712,-4.87759 13.05131,-11.43447 17.72042,-14.57085 8.24772,-5.54026 9.00146,-5.82184 26.48928,-9.89585 l 18,-4.19332 18,4.25227 18,4.25228 10.62942,7.5921 c 9.74483,6.96029 11.2844,8.52775 18.5,18.83512 4.32882,6.18366 8.36837,11.26932 8.97678,11.30147 0.60841,0.0321 3.08341,-1.43603 5.5,-3.26261 23.50709,-17.76783 41.7073,-29.05457 58.1532,-36.06341 12.7893,-5.45045 21.28,-7.95677 49.2406,-14.53503 40.8311,-9.60629 46.5284,-9.54732 90.7019,0.93883 33.7239,8.00559 40.4893,11.00037 65.2981,28.9052 17.1868,12.40394 23.4734,18.43373 33.963,32.57546 16.0329,21.61521 19.2208,27.24155 25.4356,44.89181 3.9423,11.19654 15.7274,61.94226 17.1883,74.01224 1.7632,14.56636 0.639,39.1592 -2.4498,53.59595 -8.6592,40.47165 -16.703,67.15242 -24.6996,81.92758 -1.6156,2.98517 -2.9375,5.71135 -2.9375,6.05817 0,0.34682 4.7868,3.9794 10.6373,8.07241 10.3134,7.21528 11.5834,8.55304 41.716,43.94184 17.0933,20.075 34.9503,41.80369 39.6821,48.28598 l 8.60336,11.78599 4.144,17.71401 c 2.2792,9.74271 4.273,18.95263 4.4306,20.46649 0.2807,2.69623 0.4312,2.61452 7.3639,-4 7.243,-6.91052 28.6074,-22.83336 39.5078,-29.44516 3.3483,-2.03098 9.5365,-5.13742 13.7514,-6.90322 7.3827,-3.09288 35.8988,-10.62273 56.6635,-14.96231 12.5455,-2.62187 32.3254,-3.57466 43.3357,-2.08746 7.1725,0.96883 48.5754,10.21498 52.5211,11.72909 0.7562,0.29021 4.9978,-0.39734 9.4257,-1.52788 7.7379,-1.97566 10.7118,-2.05553 76.5346,-2.05553 l 68.4838,0 14.8496,3.54085 c 8.1672,1.94746 16.4245,3.96244 18.3495,4.47772 1.925,0.51528 8.1818,4.29683 13.904,8.40342 9.2459,6.63545 11.2659,8.66934 18.1475,18.27228 l 7.7435,10.80573 4.2593,18.04101 4.2593,18.04099 -4.271,17.959 c -3.3783,14.2052 -5.5013,20.6625 -10.1568,30.8934 -3.2372,7.1139 -5.8858,13.5678 -5.8858,14.342 0,0.7742 3.3749,6.0933 7.4998,11.8201 l 7.4998,10.4125 4.0002,16.6128 c 2.2001,9.1371 4.0002,18.1041 4.0002,19.9268 0,4.0145 -12.4246,64.7368 -17.9734,87.8407 l -3.9883,16.6062 -7.7964,10.7522 c -6.8872,9.4984 -9.0189,11.6284 -18.2789,18.2644 l -10.4825,7.512 -17.9903,4.2569 -17.9902,4.2568 -74.5,-0.012 c -72.2169,-0.012 -74.7809,-0.077 -83.6652,-2.1226 l -9.1652,-2.1105 -11.0321,2.5869 c -19.9339,4.6743 -41.416,5.8443 -57.1375,3.1118 z M 974.52504,722.18365 c 2.0715,-7.4151 3.4221,-15.2076 2.7519,-15.8779 -0.6719,-0.6719 -11.3663,8.7222 -13.0845,11.4937 -0.6334,1.0216 0.205,2.3458 3,4.7384 2.1334,1.8264 4.4203,3.3376 5.082,3.3583 0.6616,0.021 1.6744,-1.65 2.2506,-3.7125 z"
         id="path4204"
         inkscape:connector-curvature="0" />
      <path
         style="fill:#d8212d"
         d="m 1133.5714,941.42035 c -6.7437,-1.1762 -14.0058,-2.8427 -42,-9.6378 -4.675,-1.1348 -11.7927,-3.4196 -15.8172,-5.0773 l -7.3171,-3.0142 -4.5475,3.2658 c -3.7739,2.7102 -7.6979,4.0077 -23.0662,7.6272 l -18.5186,4.3614 -18.9298,-4.507 c -10.41136,-2.4788 -25.08886,-6.2392 -32.61666,-8.3563 -12.6664,-3.5623 -14.3851,-4.3443 -23.0505,-10.4877 -5.15,-3.6511 -9.8696,-6.3257 -10.488,-5.9435 -0.6184,0.3822 -2.153,1.9174 -3.4103,3.4116 -1.2573,1.4942 -6.8791,5.996 -12.4929,10.004 l -10.2069,7.2873 -17.9723,4.2634 -17.9724,4.2635 -17.9399,-4.1925 c -17.743,-4.1465 -18.0288,-4.256 -26.0434,-9.9736 -8.5452,-6.0961 -10.3852,-6.586 -17.9175,-4.7703 -5.3218,1.2828 -81.1864,9.9929 -86.9134,9.9786 -2.3537,-0.01 -11.8618,-1.8065 -21.1291,-4.0014 -16.2315,-3.8443 -17.1361,-4.1925 -24.6523,-9.4893 -4.2914,-3.0242 -8.308,-5.4986 -8.9259,-5.4986 -0.6178,0 -6.3993,2.0453 -12.8477,4.5451 -11.0506,4.2838 -45.57965,13.4549 -50.65774,13.4549 -1.2826,0 -9.87786,-1.817 -19.10058,-4.0377 -16.136,-3.8854 -17.06755,-4.2484 -24.69418,-9.623 l -7.92561,-5.5854 -4.17315,3.0838 c -18.08364,13.3633 -18.95872,13.7846 -37.69053,18.1459 l -17.5174,4.0786 -17.4826,-4.095 c -16.51975,-3.8694 -115.30048,-35.0499 -117.43261,-37.068 -2.33387,-2.2091 -4.70463,-0.4963 -10.58182,7.6449 -5.14573,7.1279 -7.88904,9.7632 -16.55135,15.8994 l -10.38329,7.3553 -15.27826,3.6248 c -8.40304,1.9936 -16.84808,3.8671 -18.76676,4.1634 -1.91869,0.2963 -20.87818,-1.289 -42.13221,-3.5228 -32.5189,-3.4178 -41.35928,-4.7021 -55.77736,-8.1031 -10.53658,-2.4853 -18.37451,-3.8364 -20.35631,-3.509 -1.77245,0.2929 -42.05959,2.6119 -89.52697,5.1535 l -86.30434,4.6209 -16.19566,-3.7371 c -8.90762,-2.0553 -17.71313,-4.3563 -19.56779,-5.1132 -1.85467,-0.7569 -4.82134,-1.3762 -6.59259,-1.3762 -1.77126,0 -36.7038,3.4003 -77.62788,7.5563 -40.92407,4.1559 -75.97724,7.3168 -77.89593,7.0241 -1.91868,-0.2926 -10.36372,-2.1632 -18.76676,-4.1568 l -15.27826,-3.6248 -10.38715,-7.3581 c -9.22436,-6.5343 -11.24003,-8.5421 -18.00574,-17.9354 l -7.61858,-10.5773 -4.38865,-18.714 -4.38866,-18.714 -1.1267,-131.5 -1.12669,-131.5 3.03785,-12.69557 c 1.67082,-6.98256 3.03786,-12.92753 3.03786,-13.21104 0,-0.28352 -0.83592,-1.32051 -1.8576,-2.30443 -1.62455,-1.56452 -13.39224,-17.53779 -15.54041,-21.09431 -1.26207,-2.0895 -8.55021,-33.38156 -8.57733,-36.82732 -0.0562,-7.13233 8.44222,-37.95221 17.5163,-63.52403 5.20247,-14.66118 9.45904,-27.32316 9.45904,-28.13773 0,-0.81456 -1.33775,-4.34405 -2.97278,-7.8433 -1.63504,-3.49925 -5.3297,-15.81227 -8.21038,-27.36227 -5.17634,-20.75441 -5.23786,-21.18127 -5.261,-36.5 -0.0233,-15.46045 -0.009,-15.56041 5.68569,-39.17782 3.14,-13.0228 6.91392,-26.68741 8.38648,-30.3658 4.75753,-11.88407 27.15717,-43.47438 37.39654,-52.74048 8.70129,-7.87421 31.63458,-24.1227 41.31651,-29.2732 4.63499,-2.46567 11.74188,-5.62169 15.7931,-7.01336 9.81101,-3.37028 50.93734,-13.16807 62.86584,-14.97694 12.34772,-1.87245 40.48136,-1.84484 53.83175,0.0528 12.71008,1.80665 58.41088,12.48889 68.94335,16.11503 10.29902,3.54576 28.25893,16.23082 33.15745,23.41906 2.0479,3.00514 4.05494,4.91717 4.97544,4.73989 0.84859,-0.16342 3.57894,-3.92679 6.06745,-8.36304 2.48851,-4.43625 7.78518,-12.61353 11.77039,-18.17173 6.36551,-8.87803 8.55239,-11.04696 18,-17.85221 l 10.75417,-7.74639 18,-4.23744 18,-4.23745 18.00056,4.2383 18.00055,4.23831 10.70724,7.71213 c 12.93936,9.31985 11.73427,7.72563 52.26383,69.14032 17.7881,26.95441 30.31372,45 31.23495,45 1.13026,0 5.28379,-10.9143 15.6679,-41.17081 l 14.12992,-41.17081 7.49753,-10.6629 c 6.61296,-9.40489 8.63693,-11.47645 17.15512,-17.55853 5.31168,-3.79259 10.71168,-7.35206 12,-7.90992 3.18333,-1.37843 31.72215,-8.11586 34.85222,-8.2279 1.38041,-0.0494 10.38041,1.80272 20,4.11584 l 17.49018,4.20567 10,7.23436 c 8.81483,6.37697 11.62076,9.24385 23.67535,24.18968 7.52144,9.32543 14.35637,17.38563 15.18873,17.91156 1.17205,0.74057 3.61587,-1.06376 10.83537,-8 5.12709,-4.92593 13.14216,-11.53471 17.81127,-14.68617 8.13311,-5.48953 9.19528,-5.8986 25.31681,-9.75 9.25514,-2.21102 17.86484,-4.02005 19.13267,-4.02005 1.26783,0 9.87383,1.82247 19.12445,4.04992 l 16.8193,4.04993 9.82686,7.01597 c 9.99126,7.13334 13.38484,10.75407 22.23655,23.72486 3.26329,4.78184 5.49315,7.13916 6.5,6.87155 0.84295,-0.22404 7.60764,-4.85068 15.03264,-10.28142 23.98139,-17.54029 40.0139,-26.54624 59.5,-33.423 9.7081,-3.42604 48.4201,-12.94507 62.881,-15.46204 11.1728,-1.94467 25.8861,-1.9774 36.738,-0.0817 11.5127,2.01109 45.9509,10.13389 53.881,12.7087 11.0833,3.59859 22.8814,10.15443 39,21.67101 18.6327,13.31293 25.6246,20.24339 38.9985,38.65626 15.7133,21.6337 21.0085,34.27773 29.5246,70.5 8.4556,35.96476 8.6812,37.33709 9.2152,56.05755 0.6268,21.97914 -0.2249,28.60108 -7.9027,61.44245 -6.7436,28.84544 -10.5964,40.97442 -17.9088,56.37853 -2.7098,5.70819 -4.9268,10.51463 -4.9268,10.68097 0,0.16635 4.9823,3.82101 11.0717,8.12147 10.8638,7.67215 11.6772,8.53284 43.3003,45.81903 17.7257,20.9 35.4623,42.54456 39.4148,48.09903 l 7.18616,10.09902 4.0028,16.90098 c 2.2016,9.29553 4.0076,18.81347 4.0135,21.15097 0.01,2.3375 0.2737,4.25 0.5952,4.25 0.3214,0 3.8345,-3.2625 7.8067,-7.25 10.1916,-10.23069 34.7915,-27.77565 48.1088,-34.31184 11.4943,-5.64141 21.3208,-8.52236 54.5,-15.97833 13.2817,-2.98464 19.2547,-3.80724 30.6232,-4.21742 17.1316,-0.6181 23.037,0.18918 52.1929,7.13482 l 22.3161,5.31623 7.6839,-1.83893 c 7.0726,-1.69263 13.1634,-1.83955 76.5601,-1.84673 l 68.8761,-0.008 17.6239,4.1387 17.6238,4.13869 10.6352,7.59858 c 9.467,6.76402 11.4654,8.75631 18.1953,18.13975 l 7.5602,10.54117 4.0547,16.83889 c 2.23,9.26138 4.0546,17.85832 4.0546,19.10422 0,1.2459 -1.8253,9.8556 -4.0561,19.1327 -3.1121,12.9414 -5.4396,19.9188 -10,29.9775 -3.2692,7.2106 -5.9439,13.6773 -5.9439,14.3703 0,0.6931 3.44,5.9805 7.6444,11.7498 l 7.6445,10.4896 4.2812,18.14 4.2812,18.1401 -7.4284,36 c -4.0856,19.8 -9.1726,43.2918 -11.3044,52.204 l -3.8761,16.204 -7.7139,10.585 c -6.7971,9.3268 -8.9463,11.4579 -18.0826,17.9299 l -10.3687,7.345 -17.2886,4.1252 -17.2886,4.1253 -75.8334,-0.01 c -73.2913,-0.01 -76.104,-0.078 -83.9067,-2.0705 l -8.0734,-2.0613 -11.0932,2.5683 c -6.1013,1.4126 -14.4683,3.0012 -18.5933,3.5304 -10.3853,1.3323 -31.0026,1.08 -40,-0.4894 z M 976.48184,717.85815 c 2.3593,-10.2471 2.5674,-12.9245 1.0045,-12.9245 -1.6195,0 -14.9149,12.09 -14.9149,13.5627 0,1.7072 8.07,8.3931 10.1604,8.4177 1.2757,0.015 2.1445,-2.083 3.75,-9.0559 z"
         id="path4202"
         inkscape:connector-curvature="0" />
      <path
         style="fill:#ffffff;fill-opacity:1"
         d="m 1133.5714,941.42035 c -6.7437,-1.1762 -14.0058,-2.8427 -42,-9.6378 -4.675,-1.1348 -11.7927,-3.4196 -15.8172,-5.0773 l -7.3171,-3.0142 -4.5475,3.2658 c -3.7739,2.7102 -7.6979,4.0077 -23.0662,7.6272 l -18.5186,4.3614 -18.9298,-4.507 c -10.41136,-2.4788 -25.08886,-6.2392 -32.61666,-8.3563 -12.6664,-3.5623 -14.3851,-4.3443 -23.0505,-10.4877 -5.15,-3.6511 -9.8696,-6.3257 -10.488,-5.9435 -0.6184,0.3822 -2.153,1.9174 -3.4103,3.4116 -1.2573,1.4942 -6.8791,5.996 -12.4929,10.004 l -10.2069,7.2873 -17.9723,4.2634 -17.9724,4.2635 -17.9399,-4.1925 c -17.743,-4.1465 -18.0288,-4.256 -26.0434,-9.9736 -8.5452,-6.0961 -10.3852,-6.586 -17.9175,-4.7703 -5.3218,1.2828 -81.1864,9.9929 -86.9134,9.9786 -2.3537,-0.01 -11.8618,-1.8065 -21.1291,-4.0014 -16.2315,-3.8443 -17.1361,-4.1925 -24.6523,-9.4893 -4.2914,-3.0242 -8.308,-5.4986 -8.9259,-5.4986 -0.6178,0 -6.3993,2.0453 -12.8477,4.5451 -11.0506,4.2838 -45.57965,13.4549 -50.65774,13.4549 -1.2826,0 -9.87786,-1.817 -19.10058,-4.0377 -16.136,-3.8854 -17.06755,-4.2484 -24.69418,-9.623 l -7.92561,-5.5854 -4.17315,3.0838 c -18.08364,13.3633 -18.95872,13.7846 -37.69053,18.1459 l -17.5174,4.0786 -17.4826,-4.095 c -16.51975,-3.8694 -115.30048,-35.0499 -117.43261,-37.068 -2.33387,-2.2091 -4.70463,-0.4963 -10.58182,7.6449 -5.14573,7.1279 -7.88904,9.7632 -16.55135,15.8994 l -10.38329,7.3553 -15.27826,3.6248 c -8.40304,1.9936 -16.84808,3.8671 -18.76676,4.1634 -1.91869,0.2963 -20.87818,-1.289 -42.13221,-3.5228 -32.5189,-3.4178 -41.35928,-4.7021 -55.77736,-8.1031 -10.53658,-2.4853 -18.37451,-3.8364 -20.35631,-3.509 -1.77245,0.2929 -42.05959,2.6119 -89.52697,5.1535 l -86.30434,4.6209 -16.19566,-3.7371 c -8.90762,-2.0553 -17.71313,-4.3563 -19.56779,-5.1132 -1.85467,-0.7569 -4.82134,-1.3762 -6.59259,-1.3762 -1.77126,0 -36.7038,3.4003 -77.62788,7.5563 -40.92407,4.1559 -75.97724,7.3168 -77.89593,7.0241 -1.91868,-0.2926 -10.36372,-2.1632 -18.76676,-4.1568 l -15.27826,-3.6248 -10.38715,-7.3581 c -9.22436,-6.5343 -11.24003,-8.5421 -18.00574,-17.9354 l -7.61858,-10.5773 -4.38865,-18.714 -4.38866,-18.714 -1.1267,-131.5 -1.12669,-131.5 3.03785,-12.69557 c 1.67082,-6.98256 3.03786,-12.92753 3.03786,-13.21104 0,-0.28352 -0.83592,-1.32051 -1.8576,-2.30443 -1.62455,-1.56452 -13.39224,-17.53779 -15.54041,-21.09431 -1.26207,-2.0895 -8.55021,-33.38156 -8.57733,-36.82732 -0.0562,-7.13233 8.44222,-37.95221 17.5163,-63.52403 5.20247,-14.66118 9.45904,-27.32316 9.45904,-28.13773 0,-0.81456 -1.33775,-4.34405 -2.97278,-7.8433 -1.63504,-3.49925 -5.3297,-15.81227 -8.21038,-27.36227 -5.17634,-20.75441 -5.23786,-21.18127 -5.261,-36.5 -0.0233,-15.46045 -0.009,-15.56041 5.68569,-39.17782 3.14,-13.0228 6.91392,-26.68741 8.38648,-30.3658 4.75753,-11.88407 27.15717,-43.47438 37.39654,-52.74048 8.70129,-7.87421 31.63458,-24.1227 41.31651,-29.2732 4.63499,-2.46567 11.74188,-5.62169 15.7931,-7.01336 9.81101,-3.37028 50.93734,-13.16807 62.86584,-14.97694 12.34772,-1.87245 40.48136,-1.84484 53.83175,0.0528 12.71008,1.80665 58.41088,12.48889 68.94335,16.11503 10.29902,3.54576 28.25893,16.23082 33.15745,23.41906 2.0479,3.00514 4.05494,4.91717 4.97544,4.73989 0.84859,-0.16342 3.57894,-3.92679 6.06745,-8.36304 2.48851,-4.43625 7.78518,-12.61353 11.77039,-18.17173 6.36551,-8.87803 8.55239,-11.04696 18,-17.85221 l 10.75417,-7.74639 18,-4.23744 18,-4.23745 18.00056,4.2383 18.00055,4.23831 10.70724,7.71213 c 12.93936,9.31985 11.73427,7.72563 52.26383,69.14032 17.7881,26.95441 30.31372,45 31.23495,45 1.13026,0 5.28379,-10.9143 15.6679,-41.17081 l 14.12992,-41.17081 7.49753,-10.6629 c 6.61296,-9.40489 8.63693,-11.47645 17.15512,-17.55853 5.31168,-3.79259 10.71168,-7.35206 12,-7.90992 3.18333,-1.37843 31.72215,-8.11586 34.85222,-8.2279 1.38041,-0.0494 10.38041,1.80272 20,4.11584 l 17.49018,4.20567 10,7.23436 c 8.81483,6.37697 11.62076,9.24385 23.67535,24.18968 7.52144,9.32543 14.35637,17.38563 15.18873,17.91156 1.17205,0.74057 3.61587,-1.06376 10.83537,-8 5.12709,-4.92593 13.14216,-11.53471 17.81127,-14.68617 8.13311,-5.48953 9.19528,-5.8986 25.31681,-9.75 9.25514,-2.21102 17.86484,-4.02005 19.13267,-4.02005 1.26783,0 9.87383,1.82247 19.12445,4.04992 l 16.8193,4.04993 9.82686,7.01597 c 9.99126,7.13334 13.38484,10.75407 22.23655,23.72486 3.26329,4.78184 5.49315,7.13916 6.5,6.87155 0.84295,-0.22404 7.60764,-4.85068 15.03264,-10.28142 23.98139,-17.54029 40.0139,-26.54624 59.5,-33.423 9.7081,-3.42604 48.4201,-12.94507 62.881,-15.46204 11.1728,-1.94467 25.8861,-1.9774 36.738,-0.0817 11.5127,2.01109 45.9509,10.13389 53.881,12.7087 11.0833,3.59859 22.8814,10.15443 39,21.67101 18.6327,13.31293 25.6246,20.24339 38.9985,38.65626 15.7133,21.6337 21.0085,34.27773 29.5246,70.5 8.4556,35.96476 8.6812,37.33709 9.2152,56.05755 0.6268,21.97914 -0.2249,28.60108 -7.9027,61.44245 -6.7436,28.84544 -10.5964,40.97442 -17.9088,56.37853 -2.7098,5.70819 -4.9268,10.51463 -4.9268,10.68097 0,0.16635 4.9823,3.82101 11.0717,8.12147 10.8638,7.67215 11.6772,8.53284 43.3003,45.81903 17.7257,20.9 35.4623,42.54456 39.4148,48.09903 l 7.18616,10.09902 4.0028,16.90098 c 2.2016,9.29553 4.0076,18.81347 4.0135,21.15097 0.01,2.3375 0.2737,4.25 0.5952,4.25 0.3214,0 3.8345,-3.2625 7.8067,-7.25 10.1916,-10.23069 34.7915,-27.77565 48.1088,-34.31184 11.4943,-5.64141 21.3208,-8.52236 54.5,-15.97833 13.2817,-2.98464 19.2547,-3.80724 30.6232,-4.21742 17.1316,-0.6181 23.037,0.18918 52.1929,7.13482 l 22.3161,5.31623 7.6839,-1.83893 c 7.0726,-1.69263 13.1634,-1.83955 76.5601,-1.84673 l 68.8761,-0.008 17.6239,4.1387 17.6238,4.13869 10.6352,7.59858 c 9.467,6.76402 11.4654,8.75631 18.1953,18.13975 l 7.5602,10.54117 4.0547,16.83889 c 2.23,9.26138 4.0546,17.85832 4.0546,19.10422 0,1.2459 -1.8253,9.8556 -4.0561,19.1327 -3.1121,12.9414 -5.4396,19.9188 -10,29.9775 -3.2692,7.2106 -5.9439,13.6773 -5.9439,14.3703 0,0.6931 3.44,5.9805 7.6444,11.7498 l 7.6445,10.4896 4.2812,18.14 4.2812,18.1401 -7.4284,36 c -4.0856,19.8 -9.1726,43.2918 -11.3044,52.204 l -3.8761,16.204 -7.7139,10.585 c -6.7971,9.3268 -8.9463,11.4579 -18.0826,17.9299 l -10.3687,7.345 -17.2886,4.1252 -17.2886,4.1253 -75.8334,-0.01 c -73.2913,-0.01 -76.104,-0.078 -83.9067,-2.0705 l -8.0734,-2.0613 -11.0932,2.5683 c -6.1013,1.4126 -14.4683,3.0012 -18.5933,3.5304 -10.3853,1.3323 -31.0026,1.08 -40,-0.4894 z m 49.5,-81.3843 c 15.7053,-3.3142 31.1745,-10.0108 43.25,-18.723 2.0183,-1.4562 2.25,-1.4621 2.25,-0.057 0,0.8616 -1.5856,5.0459 -3.5235,9.2985 -1.938,4.2525 -3.15,8.1054 -2.6935,8.5619 0.4566,0.4566 33.8796,0.7146 74.2735,0.5735 l 73.4435,-0.2565 6.2254,-30 c 3.424,-16.5 6.349,-31.8 6.5,-34 l 0.2746,-4 -28.25,-0.2656 c -21.7989,-0.2049 -28.25,-0.5511 -28.25,-1.5161 0,-0.6879 11.925,-27.4764 26.5,-59.5301 14.575,-32.0537 26.5,-58.9339 26.5,-59.7338 0,-1.2581 -9.0928,-1.4544 -67.3776,-1.4544 -52.719,0 -67.5882,0.2719 -68.3457,1.25 -1.0362,1.3378 -13.2779,61.7295 -13.2771,65.5 l 4e-4,2.25 22.5,0 c 18.5167,0 22.5,0.2455 22.5,1.3868 0,2.096 -44.1619,97.6132 -45.131,97.6132 -0.4629,0 -10.3585,-12.7125 -21.9903,-28.25 -11.6318,-15.5375 -21.533,-28.6726 -22.0027,-29.1891 -0.5169,-0.5683 -5.6406,1.3849 -12.9783,4.9475 -11.4796,5.5735 -12.5961,5.909 -21.0017,6.3109 -8.0595,0.3853 -9.3788,0.1792 -14.3184,-2.2375 -14.3009,-6.9968 -21.3103,-25.4863 -14.7288,-38.8517 3.0055,-6.1033 9.3421,-12.4261 16.2313,-16.1958 4.9295,-2.6974 6.2342,-2.9572 14.4199,-2.8718 9.1472,0.095 21.8039,3.3357 26.8586,6.8761 1.1475,0.8038 2.8119,1.4614 3.6986,1.4614 1.5862,0 41.8442,-51.9068 42.651,-54.9923 0.5892,-2.2531 -17.509,-12.3876 -31.5797,-17.6837 -30.9248,-11.64013 -75.2253,-6.35367 -103.3806,12.3366 -26.2649,17.4352 -41.0236,45.0236 -42.4438,79.3394 -0.6654,16.0793 0.4905,24.7442 5.1045,38.2625 11.661,34.1654 42.2623,58.9973 80.4335,65.2688 11.4386,1.8793 35.3824,1.1614 47.6579,-1.4289 z M 976.48184,717.85815 c 2.3593,-10.2471 2.5674,-12.9245 1.0045,-12.9245 -1.6195,0 -14.9149,12.09 -14.9149,13.5627 0,1.7072 8.07,8.3931 10.1604,8.4177 1.2757,0.015 2.1445,-2.083 3.75,-9.0559 z"
         id="path4200"
         inkscape:connector-curvature="0" />
      <path
         style="fill:#101134;fill-opacity:1;stroke:#101134;stroke-opacity:1"
         d="m 1133.5714,941.42035 c -6.7437,-1.1762 -14.0058,-2.8427 -42,-9.6378 -4.675,-1.1348 -11.7927,-3.4196 -15.8172,-5.0773 l -7.3171,-3.0142 -4.5475,3.2658 c -3.7739,2.7102 -7.6979,4.0077 -23.0662,7.6272 l -18.5186,4.3614 -18.9298,-4.507 c -10.41136,-2.4788 -25.08886,-6.2392 -32.61666,-8.3563 -12.6664,-3.5623 -14.3851,-4.3443 -23.0505,-10.4877 -5.15,-3.6511 -9.8696,-6.3257 -10.488,-5.9435 -0.6184,0.3822 -2.153,1.9174 -3.4103,3.4116 -1.2573,1.4942 -6.8791,5.996 -12.4929,10.004 l -10.2069,7.2873 -17.9723,4.2634 -17.9724,4.2635 -17.9399,-4.1925 c -17.743,-4.1465 -18.0288,-4.256 -26.0434,-9.9736 -8.5452,-6.0961 -10.3852,-6.586 -17.9175,-4.7703 -5.3218,1.2828 -81.1864,9.9929 -86.9134,9.9786 -2.3537,-0.01 -11.8618,-1.8065 -21.1291,-4.0014 -16.2315,-3.8443 -17.1361,-4.1925 -24.6523,-9.4893 -4.2914,-3.0242 -8.308,-5.4986 -8.9259,-5.4986 -0.6178,0 -6.3993,2.0453 -12.8477,4.5451 -11.0506,4.2838 -45.57965,13.4549 -50.65774,13.4549 -1.2826,0 -9.87786,-1.817 -19.10058,-4.0377 -16.136,-3.8854 -17.06755,-4.2484 -24.69418,-9.623 l -7.92561,-5.5854 -4.17315,3.0838 c -18.08364,13.3633 -18.95872,13.7846 -37.69053,18.1459 l -17.5174,4.0786 -17.4826,-4.095 c -16.51975,-3.8694 -115.30048,-35.0499 -117.43261,-37.068 -2.33387,-2.2091 -4.70463,-0.4963 -10.58182,7.6449 -5.14573,7.1279 -7.88904,9.7632 -16.55135,15.8994 l -10.38329,7.3553 -15.27826,3.6248 c -8.40304,1.9936 -16.84808,3.8671 -18.76676,4.1634 -1.91869,0.2963 -20.87818,-1.289 -42.13221,-3.5228 -32.5189,-3.4178 -41.35928,-4.7021 -55.77736,-8.1031 -10.53658,-2.4853 -18.37451,-3.8364 -20.35631,-3.509 -1.77245,0.2929 -42.05959,2.6119 -89.52697,5.1535 l -86.30434,4.6209 -16.19566,-3.7371 c -8.90762,-2.0553 -17.71313,-4.3563 -19.56779,-5.1132 -1.85467,-0.7569 -4.82134,-1.3762 -6.59259,-1.3762 -1.77126,0 -36.70379,3.4004 -77.62788,7.5563 -16.81878,1.70797 -32.64596,3.24789 -45.58907,4.44909 -18.55054,1.7216 -31.1767,2.74742 -32.30686,2.57501 -1.91868,-0.2926 -10.36372,-2.1632 -18.76676,-4.1568 l -15.27826,-3.6248 -10.38715,-7.3581 c -9.22436,-6.5343 -11.24003,-8.5421 -18.00574,-17.9354 l -7.61858,-10.5773 -4.38865,-18.714 -4.38866,-18.714 -1.1267,-131.5 -1.12669,-131.5 3.03785,-12.69557 c 1.67082,-6.98256 3.03786,-12.92753 3.03786,-13.21104 0,-0.28352 -0.83592,-1.32051 -1.8576,-2.30443 -1.62455,-1.56452 -13.39224,-17.53779 -15.54041,-21.09431 -1.26207,-2.0895 -8.55021,-33.38156 -8.57733,-36.82732 -0.0562,-7.13233 8.44222,-37.95221 17.5163,-63.52403 5.20247,-14.66118 9.45904,-27.32316 9.45904,-28.13773 0,-0.81456 -1.33775,-4.34405 -2.97278,-7.8433 -1.63504,-3.49925 -5.3297,-15.81227 -8.21038,-27.36227 -5.17634,-20.75441 -5.23786,-21.18127 -5.261,-36.5 -0.0233,-15.46045 -0.009,-15.56041 5.68569,-39.17782 3.14,-13.0228 6.91392,-26.68741 8.38648,-30.3658 4.75753,-11.88407 27.15717,-43.47438 37.39654,-52.74048 8.70129,-7.87421 31.63458,-24.1227 41.31651,-29.2732 4.63499,-2.46567 11.74188,-5.62169 15.7931,-7.01336 9.81101,-3.37028 50.93734,-13.16807 62.86584,-14.97694 12.34772,-1.87245 40.48136,-1.84484 53.83175,0.0528 12.71008,1.80665 58.41088,12.48889 68.94335,16.11503 10.29902,3.54576 28.25893,16.23082 33.15745,23.41906 2.0479,3.00514 4.05494,4.91717 4.97544,4.73989 0.84859,-0.16342 3.57894,-3.92679 6.06745,-8.36304 2.48851,-4.43625 7.78518,-12.61353 11.77039,-18.17173 6.36551,-8.87803 8.55239,-11.04696 18,-17.85221 l 10.75417,-7.74639 18,-4.23744 18,-4.23745 18.00056,4.2383 18.00055,4.23831 10.70724,7.71213 c 12.93936,9.31985 11.73427,7.72563 52.26383,69.14032 17.7881,26.95441 30.31372,45 31.23495,45 1.13026,0 5.28379,-10.9143 15.6679,-41.17081 l 14.12992,-41.17081 7.49753,-10.6629 c 6.61296,-9.40489 8.63693,-11.47645 17.15512,-17.55853 5.31168,-3.79259 10.71168,-7.35206 12,-7.90992 3.18333,-1.37843 31.72215,-8.11586 34.85222,-8.2279 1.38041,-0.0494 10.38041,1.80272 20,4.11584 l 17.49018,4.20567 10,7.23436 c 8.81483,6.37697 11.62076,9.24385 23.67535,24.18968 7.52144,9.32543 14.35637,17.38563 15.18873,17.91156 1.17205,0.74057 3.61587,-1.06376 10.83537,-8 5.12709,-4.92593 13.14216,-11.53471 17.81127,-14.68617 8.13311,-5.48953 9.19528,-5.8986 25.31681,-9.75 9.25514,-2.21102 17.86484,-4.02005 19.13267,-4.02005 1.26783,0 9.87383,1.82247 19.12445,4.04992 l 16.8193,4.04993 9.82686,7.01597 c 9.99126,7.13334 13.38484,10.75407 22.23655,23.72486 3.26329,4.78184 5.49315,7.13916 6.5,6.87155 0.84295,-0.22404 7.60764,-4.85068 15.03264,-10.28142 23.98139,-17.54029 40.0139,-26.54624 59.5,-33.423 9.7081,-3.42604 48.4201,-12.94507 62.881,-15.46204 11.1728,-1.94467 25.8861,-1.9774 36.738,-0.0817 11.5127,2.01109 45.9509,10.13389 53.881,12.7087 11.0833,3.59859 22.8814,10.15443 39,21.67101 18.6327,13.31293 25.6246,20.24339 38.9985,38.65626 15.7133,21.6337 21.0085,34.27773 29.5246,70.5 8.4556,35.96476 8.6812,37.33709 9.2152,56.05755 0.6268,21.97914 -0.2249,28.60108 -7.9027,61.44245 -6.7436,28.84544 -10.5964,40.97442 -17.9088,56.37853 -2.7098,5.70819 -4.9268,10.51463 -4.9268,10.68097 0,0.16635 4.9823,3.82101 11.0717,8.12147 10.8638,7.67215 11.6772,8.53284 43.3003,45.81903 17.7257,20.9 35.4623,42.54456 39.4148,48.09903 l 7.18616,10.09902 4.0028,16.90098 c 2.2016,9.29553 4.0076,18.81347 4.0135,21.15097 0.01,2.3375 0.2737,4.25 0.5952,4.25 0.3214,0 3.8345,-3.2625 7.8067,-7.25 10.1916,-10.23069 34.7915,-27.77565 48.1088,-34.31184 11.4943,-5.64141 21.3208,-8.52236 54.5,-15.97833 13.2817,-2.98464 19.2547,-3.80724 30.6232,-4.21742 17.1316,-0.6181 23.037,0.18918 52.1929,7.13482 l 22.3161,5.31623 7.6839,-1.83893 c 7.0726,-1.69263 13.1634,-1.83955 76.5601,-1.84673 l 68.8761,-0.008 17.6239,4.1387 17.6238,4.13869 10.6352,7.59858 c 9.467,6.76402 11.4654,8.75631 18.1953,18.13975 l 7.5602,10.54117 4.0547,16.83889 c 2.23,9.26138 4.0546,17.85832 4.0546,19.10422 0,1.2459 -1.8253,9.8556 -4.0561,19.1327 -3.1121,12.9414 -5.4396,19.9188 -10,29.9775 -3.2692,7.2106 -5.9439,13.6773 -5.9439,14.3703 0,0.6931 3.44,5.9805 7.6444,11.7498 l 7.6445,10.4896 4.2812,18.14 4.2812,18.1401 -7.4284,36 c -4.0856,19.8 -9.1726,43.2918 -11.3044,52.204 l -3.8761,16.204 -7.7139,10.585 c -6.7971,9.3268 -8.9463,11.4579 -18.0826,17.9299 l -10.3687,7.345 -17.2886,4.1252 -17.2886,4.1253 -75.8334,-0.01 c -73.2913,-0.01 -76.104,-0.078 -83.9067,-2.0705 l -8.0734,-2.0613 -11.0932,2.5683 c -6.1013,1.4126 -14.4683,3.0012 -18.5933,3.5304 -10.3853,1.3323 -31.0026,1.08 -40,-0.4894 z m 49.5,-81.3843 c 15.7053,-3.3142 31.1745,-10.0108 43.25,-18.723 2.0183,-1.4562 2.25,-1.4621 2.25,-0.057 0,0.8616 -1.5856,5.0459 -3.5235,9.2985 -1.938,4.2525 -3.15,8.1054 -2.6935,8.5619 0.4566,0.4566 33.8796,0.7146 74.2735,0.5735 l 73.4435,-0.2565 6.2254,-30 c 3.424,-16.5 6.349,-31.8 6.5,-34 l 0.2746,-4 -28.25,-0.2656 c -21.7989,-0.2049 -28.25,-0.5511 -28.25,-1.5161 0,-0.6879 11.925,-27.4764 26.5,-59.5301 14.575,-32.0537 26.5,-58.9339 26.5,-59.7338 0,-1.2581 -9.0928,-1.4544 -67.3776,-1.4544 -52.719,0 -67.5882,0.2719 -68.3457,1.25 -1.0362,1.3378 -13.2779,61.7295 -13.2771,65.5 l 4e-4,2.25 22.5,0 c 18.5167,0 22.5,0.2455 22.5,1.3868 0,2.096 -44.1619,97.6132 -45.131,97.6132 -0.4629,0 -10.3585,-12.7125 -21.9903,-28.25 -11.6318,-15.5375 -21.533,-28.6726 -22.0027,-29.1891 -0.5169,-0.5683 -5.6406,1.3849 -12.9783,4.9475 -11.4796,5.5735 -12.5961,5.909 -21.0017,6.3109 -8.0595,0.3853 -9.3788,0.1792 -14.3184,-2.2375 -14.3009,-6.9968 -21.3103,-25.4863 -14.7288,-38.8517 3.0055,-6.1033 9.3421,-12.4261 16.2313,-16.1958 4.9295,-2.6974 6.2342,-2.9572 14.4199,-2.8718 9.1472,0.095 21.8039,3.3357 26.8586,6.8761 1.1475,0.8038 2.8119,1.4614 3.6986,1.4614 1.5862,0 41.8442,-51.9068 42.651,-54.9923 0.5892,-2.2531 -17.509,-12.3876 -31.5797,-17.6837 -30.9248,-11.64013 -75.2253,-6.35367 -103.3806,12.3366 -26.2649,17.4352 -41.0236,45.0236 -42.4438,79.3394 -0.6654,16.0793 0.4905,24.7442 5.1045,38.2625 11.661,34.1654 42.2623,58.9973 80.4335,65.2688 11.4386,1.8793 35.3824,1.1614 47.6579,-1.4289 z m -160.1139,-3.8524 c 1.8115,-6.0861 5.6712,-29.5831 4.9675,-30.2412 -0.4695,-0.4391 -7.8985,-1.1161 -16.5088,-1.5044 l -15.65526,-0.7061 -0.7404,7.8509 c -0.4072,4.3179 -0.7874,10.2835 -0.8448,13.2567 l -0.1043,5.406 12.99996,3.7422 c 15.4495,4.4474 15.2252,4.4164 15.8861,2.1959 z m -124.73446,-32.628 c 12.1834,-18.3272 21.8584,-33.7734 21.5,-34.3247 -0.3584,-0.5514 -17.9766,-15.5471 -39.1516,-33.3239 -21.175,-17.7768 -38.8302,-32.8057 -39.2337,-33.3974 -0.4036,-0.5918 -0.6286,-1.3695 -0.5,-1.7283 0.1285,-0.3588 20.2587,-19.2238 44.7337,-41.9222 25.9481,-24.06467 44.5,-41.99854 44.5,-43.01759 0,-1.91638 -60.0256,-73.21974 -62.0539,-73.71275 -0.6898,-0.16766 -12.4348,15.22845 -26.1001,34.21358 -13.6653,18.98513 -25.4085,34.5348 -26.096,34.55484 -1.5167,0.0442 -1.3917,2.95617 -1.2535,-29.21358 l 0.1149,-26.75 -2.8057,0.021 c -4.83,0.0361 -91.285,10.62497 -91.918,11.25798 -0.837,0.837 4.5353,262.05835 5.4058,262.85295 0.8565,0.7817 83.0108,-8.6032 84.0051,-9.5964 0.3858,-0.3852 0.9264,-9.2895 1.2014,-19.7871 0.3133,-11.9615 0.8905,-19.2159 1.546,-19.4329 0.5754,-0.1904 14.6594,12.4857 31.298,28.1692 16.6386,15.6834 30.7928,28.5028 31.454,28.4875 0.6611,-0.015 11.1702,-15.0229 23.3536,-33.3502 z m -400.66893,28.128 c 0.51689,-1.2375 3.48907,-11.7 6.60485,-23.25 3.11578,-11.55 6.18609,-21.5618 6.82292,-22.2484 0.83785,-0.9034 10.51656,-1.57 35.01891,-2.4117 32.89547,-1.1301 33.90165,-1.1087 35.28506,0.7484 0.78321,1.0514 7.04387,11.2492 13.91257,22.6617 6.8687,11.4125 13.02506,20.7577 13.68079,20.7671 2.94258,0.042 100.68043,-37.624 100.68613,-38.8022 0,-0.7069 -33.8159,-52.6819 -75.1539,-115.5 -96.98816,-147.38533 -88.7705,-135.23127 -90.3166,-133.57976 -1.6252,1.736 -144.5234,260.41256 -144.5234,261.61846 0,0.7181 93.48304,31.9729 96.27144,32.1871 0.42429,0.033 1.19435,-0.9532 1.71123,-2.1907 z m 31.55054,-99.6963 c -0.55324,-0.8951 18.83162,-46.487 20.62296,-48.5037 1.5113,-1.7015 2.65886,0.6351 9.81017,19.975 6.56759,17.7612 8.09016,23.4531 6.28366,23.4905 -0.4125,0.01 -8.175,1.3583 -17.25,2.9994 -18.45285,3.3369 -18.65166,3.3577 -19.46679,2.0388 z m -240.53038,90.1963 c 0.005,-16.3456 1.26808,-47.0703 1.98301,-48.2271 0.37044,-0.5994 4.23767,-1.9443 8.59385,-2.9886 57.05902,-13.6796 103.53429,-58.9149 116.41857,-113.3125 8.02276,-33.87217 2.13802,-63.21052 -16.49826,-82.25199 -13.77496,-14.07445 -33.70392,-21.44797 -58,-21.45941 -14.50685,-0.007 -134.0734,12.3184 -135.86514,14.00534 -0.88391,0.83222 4.00906,254.96156 4.92667,255.87916 0.57333,0.5733 67.76758,7.8067 74.18847,7.9862 l 4.25,0.1189 0.003,-9.75 z m -7.21137,-130.5 c -0.92773,-2.7447 2.4431,-48.2841 3.72525,-50.3276 1.76124,-2.80721 14.88194,-6.64524 24.48329,-7.16182 9.84204,-0.52954 15.39453,2.04721 18.75,8.70132 4.68288,9.2864 1.89574,18.9882 -8.5781,29.8597 -11.71245,12.157 -36.53183,24.3974 -38.38044,18.9284 z m -392.91997,130.7851 c 45.85432,-4.6446 83.58039,-8.6536 83.8357,-8.909 0.66915,-0.6691 -3.28701,-89.5393 -4.01852,-90.2708 -0.33646,-0.3364 -18.04674,3.0153 -39.35617,7.4482 -21.30943,4.433 -39.10174,7.8391 -39.53846,7.5692 -1.2878,-0.7959 -0.97371,-10.6175 3.17644,-99.32859 2.17309,-46.45073 3.76296,-84.644 3.53304,-84.87393 -0.54913,-0.54913 -95.48225,12.69864 -96.79004,13.5069 -0.97726,0.60398 -0.7341,53.75649 0.93816,205.07292 l 0.64375,58.25 2.1023,-0.01 c 1.15627,-0.01 39.61948,-3.8101 85.4738,-8.4548 z m 199.4586,-1.0711 c 45.72803,-2.4948 83.46342,-4.8575 83.85643,-5.2505 1.16374,-1.1638 2.28459,-89.2135 1.13567,-89.2135 -0.547,0 -19.85577,1.7965 -42.90837,3.9922 -45.49309,4.3332 -48.96812,4.538 -49.95324,2.944 -0.3616,-0.5851 -0.34103,-4.6383 0.0457,-9.0072 0.62138,-7.0197 0.95263,-7.9988 2.84843,-8.4191 1.1799,-0.2615 13.33317,-1.3587 27.00726,-2.438 13.67408,-1.0794 25.04752,-2.1481 25.2743,-2.3748 0.22678,-0.2268 1.89023,-12.6736 3.69654,-27.6596 2.79793,-23.2128 3.07099,-27.3291 1.84416,-27.7998 -0.79203,-0.304 -12.06837,0.1989 -25.05852,1.1175 -12.99015,0.9186 -25.75596,1.6644 -28.36846,1.6575 l -4.74999,-0.0127 0,-7.441 c 0,-4.7322 0.43933,-7.7125 1.20686,-8.1868 0.66378,-0.4103 19.17812,-1.5512 41.14298,-2.53538 21.96487,-0.98419 40.11554,-1.96886 40.33482,-2.18815 0.66067,-0.66067 10.33241,-80.96493 9.81378,-81.48356 -0.74325,-0.74326 -178.76993,12.70633 -179.63425,13.57104 -0.73917,0.73949 0.93448,251.49535 1.69539,254.01385 0.51326,1.6988 -2.79084,1.8185 90.77051,-3.286 z m 888.58031,-123.5395 c 2.3593,-10.2471 2.5674,-12.9245 1.0045,-12.9245 -1.6195,0 -14.9149,12.09 -14.9149,13.5627 0,1.7072 8.07,8.3931 10.1604,8.4177 1.2757,0.015 2.1445,-2.083 3.75,-9.0559 z M 665.53774,600.32782 c 9.9916,-17.3832 17.9542,-32.15906 17.6947,-32.83523 -0.501,-1.3055 -62.60751,-36.55894 -64.40646,-36.55894 -1.84481,0 -37.61717,63.20651 -36.63142,64.7244 0.99625,1.53406 62.25938,36.22462 64.02688,36.2555 0.6324,0.0111 9.3248,-14.20252 19.3163,-31.58573 z m -110.4663,-94.37629 c 20.9,-17.03449 38.12861,-31.56949 38.28581,-32.30002 0.31289,-1.45412 -78.26651,-217.59856 -79.58876,-218.92081 -0.4482,-0.4482 -17.80623,16.73911 -38.5734,38.19402 -20.76717,21.45491 -38.35435,39.00893 -39.08263,39.00893 -0.72827,0 -18.98987,-22.275 -40.58131,-49.5 -21.59145,-27.225 -39.541,-49.5 -39.88788,-49.5 -0.34688,0 -17.88554,50.2875 -38.9748,111.75 -21.08926,61.4625 -38.78369,112.59233 -39.32096,113.62183 -0.95455,1.82912 -1.01834,1.82912 -2.79481,0 -0.99987,-1.0295 -33.64078,-50.24683 -72.53534,-109.37183 -86.93888,-132.15887 -78.37006,-119.5246 -79.93195,-117.85543 -1.61894,1.73013 -144.51397,260.40781 -144.51397,261.60839 0,1.29755 96.20747,32.43957 97.18772,31.45932 0.45241,-0.45241 3.5746,-10.92274 6.9382,-23.26742 3.3636,-12.34467 6.63916,-23.00666 7.27901,-23.6933 0.84163,-0.90316 10.52833,-1.57016 35.02442,-2.41167 32.89547,-1.13007 33.90165,-1.10872 35.28506,0.74844 0.78321,1.05142 7.04387,11.24917 13.91257,22.66167 6.8687,11.4125 13.07653,20.75 13.79516,20.75 0.71864,0 22.74924,-8.1123 48.9569,-18.02733 38.67762,-14.63274 48.01843,-17.83032 49.6053,-16.98105 1.07526,0.57546 14.90616,9.43242 30.73533,19.68215 15.82918,10.24972 29.51782,18.8306 30.41919,19.06861 1.3544,0.35764 4.27716,-7.61014 16.83893,-45.90481 8.36004,-25.48566 15.59098,-46.746 16.06876,-47.24519 0.51801,-0.54122 1.3904,-0.46643 2.16107,0.18529 0.71081,0.6011 12.54238,18.43175 26.29238,39.62367 13.75,21.19191 25.55933,38.43353 26.24296,38.31471 0.68363,-0.11883 10.65228,-16.64105 22.15256,-36.71605 11.50028,-20.075 21.56658,-36.63358 22.36955,-36.79685 1.09614,-0.22287 5.36358,11.24039 17.12451,46 8.6155,25.46327 16.41326,48.65935 17.32836,51.54685 0.91509,2.8875 2.14041,5.24767 2.72293,5.24483 0.58252,-0.003 18.15913,-13.94247 39.05913,-30.97695 z M 107.10465,422.98739 c -0.55324,-0.89517 18.83162,-46.48701 20.62296,-48.50374 1.5113,-1.70146 2.65886,0.63514 9.81017,19.97496 6.56759,17.7612 8.09016,23.45314 6.28366,23.49059 -0.4125,0.009 -8.175,1.35825 -17.25,2.99934 -18.45285,3.33693 -18.65166,3.35775 -19.46679,2.03885 z m 622.96679,100.91843 c 29.6837,-6.19533 55.0239,-19.17892 72.8054,-37.30339 51.3212,-52.3108 64.7785,-131.67747 33.2622,-196.16878 -4.2518,-8.70042 -6.9464,-12.68671 -12.8894,-19.06831 -19.7673,-21.22587 -46.9522,-32.43169 -78.6782,-32.43169 -14.5355,0 -25.6693,1.88871 -41.5061,7.04097 -59.6935,19.42039 -104.76317,67.32984 -117.6646,125.07853 -2.00224,8.96231 -2.3138,13.0446 -2.28045,29.8805 0.0436,22.00139 1.67791,32.23959 7.8827,49.38057 9.85995,27.23856 23.14984,45.22587 42.94715,58.12726 13.644,8.89139 27.6119,14.18673 45.1213,17.1058 11.5027,1.91768 38.0394,1.06358 51,-1.64146 z m -42.214,-74.42292 c -13.3224,-4.16357 -21.5602,-13.91741 -24.8457,-29.41818 -6.4229,-30.30206 8.6566,-66.72398 33.9438,-81.98568 11.7227,-7.07503 17.0114,-8.64539 29.1159,-8.64539 10.7401,0 11.1536,0.0846 17.5,3.57879 7.9942,4.4015 12.9256,10.56515 16.7386,20.92121 2.4932,6.77148 2.7535,8.7142 2.6804,20 -0.07,10.81498 -0.4548,13.64581 -2.8537,21 -3.4638,10.61875 -10.436,24.2913 -16.2059,31.78003 -14.04,18.22224 -38.6486,28.21486 -56.0734,22.76922 z m -797.79645,70.93334 c 59.85187,-9.02081 94.43427,-42.37625 94.49731,-91.14462 0.0185,-14.28229 -2.05805,-24.04589 -7.42823,-34.92686 -5.36916,-10.87892 -14.0463,-20.73846 -24.74751,-28.11974 -8.82706,-6.08858 -26.89031,-15.2234 -35.81112,-18.11017 -7.88054,-2.55013 -25.93606,-6.6918 -35.5,-8.14318 -13.64411,-2.07056 -18.30984,-5.07434 -17.01799,-10.95613 1.72962,-7.87487 14.54839,-13.40375 30.97749,-13.36094 13.94755,0.0363 29.58333,3.58023 48.38502,10.96658 6.23949,2.45122 11.59761,4.20367 11.90694,3.89434 0.97229,-0.97229 19.18722,-73.87208 18.66784,-74.71244 -0.27176,-0.43972 -4.63978,-2.12737 -9.7067,-3.75033 -21.42127,-6.86134 -49.40859,-10.0273 -72.4626,-8.19707 -46.35178,3.67983 -78.6153,22.53643 -94.71481,55.3566 -6.31755,12.87886 -7.71539,18.8436 -8.27226,35.29873 -0.53761,15.88591 0.38869,22.08598 4.6296,30.98763 10.27448,21.5661 33.06869,37.59758 68.29068,48.02978 25.72195,7.61844 33.13189,13.77007 28.37677,23.55801 -1.99723,4.11109 -4.68633,6.13179 -11.023,8.28314 -16.87962,5.73079 -35.89875,3.17997 -63.92534,-8.57357 -6.53859,-2.7421 -12.27105,-4.60294 -12.73878,-4.13521 -1.17209,1.17209 -23.87286,65.21779 -23.87286,67.35251 0,4.51994 44.34067,18.7668 66,21.2061 9.40567,1.05928 36.28081,0.58478 45.48955,-0.80316 z"
         id="path4198"
         inkscape:connector-curvature="0"
         sodipodi:nodetypes="csccsscsssssscccssscssssssscsscsssscsssccsccsssscscsscccccssssssssssssssssssscssscccccsssscssssscsssssssscssssssssssssscsssccscsssssscsscccsscsscssscccsscsscccsccssccccscsscsccssssscccsssscsssssccscsssssccscscsccssccsccssssssccsccscscccsscsssccssscsccscsccscsscscccccscsssscccssscssccccscsssscscscsccscscsssssssssscsscsscsssssssssssssssssssssssssscsssscsssscssssssssssssssssssssssssssssssssssssssssssssssss" />
      <path
         style="fill:#105f22;stroke:#101134;stroke-opacity:1"
         d="m 1136.5323,940.87405 c -10.5885,-1.5594 -51.8562,-11.8613 -59.6347,-14.887 -4.3044,-1.6743 -8.2026,-3.0463 -8.6627,-3.0488 -0.4601,0 -2.8094,1.4122 -5.2206,3.1438 -3.5549,2.5529 -7.8159,3.9625 -22.5308,7.4532 l -18.1469,4.3048 -16.6326,-3.944 c -9.14786,-2.1692 -23.56276,-5.8398 -32.03306,-8.1567 -14.7677,-4.0396 -15.795,-4.4916 -25,-11.0007 -5.2797,-3.7335 -10.1292,-6.7919 -10.7767,-6.7965 -0.6475,0 -2.469,1.5586 -4.0478,3.474 -3.7835,4.5901 -21.7338,17.2915 -26.2344,18.5631 -1.9473,0.5502 -10.0513,2.5312 -18.0089,4.4021 l -14.4683,3.4018 -17.012,-4.0128 c -18.9766,-4.4762 -18.5327,-4.3024 -27.5514,-10.7858 -3.575,-2.57 -7.2125,-4.9399 -8.0833,-5.2664 -0.8708,-0.3266 -4.2458,0.011 -7.5,0.7495 -6.1164,1.3886 -83.4801,10.4856 -89.066,10.4731 -1.7321,0 -10.8811,-1.8309 -20.3311,-4.06 -16.7906,-3.9605 -17.3497,-4.1769 -24.5475,-9.5 -4.0511,-2.9959 -8.1438,-5.4471 -9.0949,-5.4471 -0.9511,0 -7.649,2.2187 -14.8844,4.9303 -7.2353,2.7117 -21.1745,6.8292 -30.97594,9.15 l -17.82078,4.2197 -17.9674,-4.1989 c -17.70056,-4.1366 -18.07688,-4.2799 -25.33838,-9.65 -4.05403,-2.9981 -7.80958,-5.4511 -8.34567,-5.4511 -0.53609,0 -6.05294,3.694 -12.25967,8.2089 l -11.28496,8.2089 -17.97087,4.2688 -17.97086,4.2689 -17.52914,-4.0935 c -16.54838,-3.8644 -110.9937,-33.7238 -117.79797,-37.2425 -3.74754,-1.9379 -4.34082,-1.4931 -11.53175,8.646 -4.28859,6.0468 -7.57973,9.2663 -14.87039,14.5469 -5.14958,3.7298 -9.81351,7.06 -10.3643,7.4004 -0.55079,0.3404 -8.90417,2.4774 -18.56306,4.7489 l -17.56162,4.13 -39.42002,-4.0729 c -33.43337,-3.4543 -41.99576,-4.6801 -56.38036,-8.0717 -13.31853,-3.1402 -18.14985,-3.8797 -22.5,-3.4442 -3.04681,0.3051 -43.4944,2.5954 -89.88354,5.0896 l -84.34387,4.535 -17.30572,-4.0698 c -9.51815,-2.2384 -18.68935,-4.6516 -20.38046,-5.3626 -2.66347,-1.1199 -13.41073,-0.2428 -80.3504,6.5576 l -77.27567,7.8505 -11.5,-2.5833 c -24.52879,-5.5101 -24.76756,-5.5999 -35.29928,-13.2776 -8.17729,-5.9613 -10.96894,-8.7587 -16.86588,-16.9003 -3.88663,-5.3661 -7.44405,-10.6758 -7.90538,-11.7993 -0.46132,-1.1235 -2.61239,-9.9177 -4.78016,-19.5427 l -3.94139,-17.5 -1.05427,-130.9468 -1.05427,-130.94683 3.11279,-13.23612 3.11278,-13.23613 -2.92061,-3.32639 c -1.60634,-1.82952 -5.71324,-7.19478 -9.12644,-11.9228 -6.14987,-8.51888 -6.24223,-8.74754 -10.24186,-25.35799 -2.21982,-9.21888 -4.03603,-17.78848 -4.03603,-19.04356 0,-6.7954 8.97299,-39.15282 17.57563,-63.37935 5.18341,-14.59734 9.42437,-27.39967 9.42437,-28.44961 0,-1.04995 -1.34255,-4.66421 -2.98344,-8.03171 -1.74486,-3.58084 -5.16674,-15.04851 -8.24246,-27.62271 -5.18616,-21.20219 -5.25824,-21.70777 -5.20347,-36.5 0.0546,-14.73861 0.15346,-15.4008 5.6747,-38 6.42215,-26.2868 7.40808,-29.33127 12.62263,-38.97783 6.0279,-11.15117 24.24869,-35.4318 32.30553,-43.04967 7.82423,-7.39791 26.73381,-21.38813 38.26051,-28.30695 10.54015,-6.32666 20.62938,-9.77834 47.50389,-16.2518 34.17844,-8.23282 42.11913,-9.27011 66.06211,-8.62968 10.86309,0.29057 23.04335,1.19254 27.5,2.03644 14.71044,2.7855 55.91055,12.88856 63.5,15.57143 9.84208,3.47917 26.66207,15.38236 32.05845,22.68718 2.14345,2.90149 4.29087,5.51874 4.77205,5.81612 1.58982,0.98256 3.94673,-1.79584 8.39411,-9.89524 2.41604,-4.4 7.59405,-12.43728 11.5067,-17.86061 6.13766,-8.50746 8.53072,-10.87617 17.43843,-17.26106 5.67849,-4.07024 11.00082,-7.60572 11.8274,-7.85662 6.69303,-2.03163 31.87658,-7.52171 34.50286,-7.52171 2.62628,0 27.80983,5.49008 34.50286,7.52171 0.82658,0.2509 6.10711,3.75642 11.73451,7.79004 12.3777,8.87211 11.98179,8.34443 53.03581,70.68825 16.11702,24.475 29.93102,44.63965 30.69778,44.81033 0.76675,0.17068 1.8222,-0.50432 2.34545,-1.5 0.52324,-0.99568 7.1911,-20.03533 14.81747,-42.31033 l 13.86612,-40.5 7.5,-10.48465 c 6.58319,-9.203 8.75426,-11.38811 17.76052,-17.87535 l 10.26053,-7.3907 16.23947,-3.8434 c 8.93172,-2.11387 17.4686,-3.85746 18.97086,-3.87465 3.08448,-0.0353 31.99559,6.4762 35.63901,8.02678 1.30372,0.55484 6.75048,4.1869 12.10391,8.07123 8.6439,6.27182 11.27177,9.00285 23.47463,24.39606 7.55761,9.5335 14.43149,17.59855 15.27527,17.92234 1.03132,0.39576 4.03196,-1.99984 9.15498,-7.30898 4.19145,-4.34373 11.89582,-10.97561 17.12082,-14.7375 10.06868,-7.24924 12.87104,-8.2502 39.1196,-13.97291 l 7.61961,-1.66123 17.689,4.15993 17.68901,4.15993 10.19139,7.40791 c 8.75453,6.36349 11.22422,8.84093 17.51709,17.57202 4.02913,5.59026 7.56477,10.78715 7.85698,11.54864 1.07905,2.81195 4.57265,1.16086 17.54153,-8.29016 19.52497,-14.22875 28.29199,-19.72419 41.98879,-26.32002 16.1062,-7.75603 25.5822,-10.81979 53.8364,-17.4062 44.69,-10.41779 50.146,-10.29338 101.2043,2.30777 24.4333,6.03012 33.8766,10.44191 55.2416,25.80815 18.7584,13.49158 25.5015,20.16722 38.1669,37.78499 10.9129,15.18004 16.4285,25.24404 21.1164,38.52993 3.8054,10.78458 15.7637,61.53404 17.3121,73.47007 1.339,10.32112 0.7064,38.71871 -1.0692,48 -1.8447,9.64241 -10.9587,48.36544 -13.1804,56 -2.5512,8.76703 -10.107,27.39116 -13.3746,32.96692 -1.3566,2.31484 -2.4665,4.87733 -2.4665,5.69443 0,0.81709 3.2486,3.70256 7.2191,6.41214 3.9705,2.70958 9.2811,6.55377 11.8012,8.54264 5.6379,4.44928 62.6842,71.41739 73.7889,86.6226 l 8.07516,11.057 4.0578,17.20285 c 2.2318,9.46157 4.0578,19.40753 4.0578,22.10213 0,2.69461 0.445,4.89929 0.9888,4.89929 0.5439,0 4.0314,-3.20282 7.75,-7.11738 6.074,-6.39394 22.3344,-19.02693 37.2612,-28.94879 13.0886,-8.70004 23.7679,-12.54529 55,-19.80371 27.5468,-6.40195 36.2417,-7.53182 52.5,-6.82217 12.8883,0.56255 21.3536,2.15738 53.2289,10.02812 l 10.2289,2.52575 8.0845,-1.93091 c 7.5789,-1.81017 12.3573,-1.93091 76.4203,-1.93091 l 68.336,0 17.3434,4.09097 c 9.5388,2.25004 17.7967,4.35384 18.3507,4.67513 0.554,0.32129 5.3507,3.6663 10.6593,7.43335 8.3279,5.90956 10.6902,8.28077 17.2195,17.28405 l 7.5674,10.43484 4.1664,17.8282 4.1663,17.82816 -4.1691,17.728 c -3.3276,14.15 -5.3733,20.3769 -10.1358,30.8525 -3.2817,7.2185 -5.9667,13.8574 -5.9667,14.753 0,0.8956 3.38,6.3438 7.5111,12.1072 4.131,5.7634 7.7163,11.1552 7.9672,11.9817 1.9503,6.4251 7.6624,32.1068 7.6741,34.5029 0.024,5.0063 -18.1045,90.743 -21.6741,102.5029 -0.2509,0.8265 -3.7441,6.0899 -7.7627,11.6964 -6.1822,8.6248 -8.7616,11.2489 -16.7611,17.0517 -5.2,3.7719 -9.9078,7.1301 -10.4618,7.4626 -0.554,0.3324 -8.8119,2.4454 -18.3507,4.6954 l -17.3434,4.091 -74.8238,0 c -72.3177,0 -75.1275,-0.07 -83.8943,-2.0884 l -9.0705,-2.0885 -10.755,2.5484 c -18.6949,4.4296 -40.0782,5.8097 -55.2941,3.5689 z m 40.334,-78.4286 c 13.742,-2.0713 30.1839,-7.7691 40.573,-14.0601 4.7477,-2.8748 8.7711,-5.1011 8.9409,-4.9472 0.1699,0.1539 -1.0676,3.3156 -2.75,7.026 -5.3209,11.7351 -14.0102,10.4695 71.8822,10.4695 43.4058,0 75.1753,-0.3792 75.4979,-0.9012 1.0045,-1.6252 14.2313,-67.5881 13.8076,-68.8592 -0.3154,-0.9464 -6.9758,-1.2396 -28.1632,-1.2396 -15.2625,0 -27.9942,-0.2442 -28.2926,-0.5427 -0.2985,-0.2984 11.5647,-27.1644 26.3627,-59.7022 14.798,-32.5377 26.6813,-59.7435 26.4074,-60.4573 -0.7182,-1.8716 -136.8067,-1.9186 -138.3412,-0.048 -1.3712,1.6718 -14.5007,67.4861 -13.7162,68.7555 0.3772,0.6103 9.0675,0.9945 22.4966,0.9945 12.0351,0 22.0723,0.3375 22.305,0.75 0.4312,0.7645 -41.7311,93.0761 -43.1676,94.5126 -0.4334,0.4334 -10.4291,-12.0272 -22.2127,-27.6901 -12.3123,-16.3658 -22.1167,-28.4981 -23.0517,-28.5253 -0.8949,-0.026 -6.9699,2.5403 -13.5,5.7028 -11.7664,5.6984 -11.9538,5.7499 -20.873,5.7428 -7.3029,-0.01 -9.7543,-0.4135 -13,-2.1623 -12.8399,-6.9182 -19.2806,-24.0373 -13.7424,-36.5269 2.7124,-6.117 9.9778,-13.3067 16.5291,-16.3568 9.4703,-4.4092 25.1169,-2.9272 37.951,3.5946 3.2022,1.6272 6.1947,2.9586 6.65,2.9586 0.7522,0 38.4108,-48.8832 42.4935,-55.1593 1.6675,-2.5633 1.6528,-2.7311 -0.4062,-4.6494 -3.0465,-2.8382 -24.1313,-13.5029 -32.8129,-16.5967 -10.4006,-3.70645 -22.5838,-5.59553 -36.0431,-5.5887 -54.4096,0.0276 -95.1134,28.8119 -107.2149,75.8187 -3.9672,15.4099 -4.1511,38.7543 -0.4216,53.5116 9.541,37.753 41.5677,66.8895 81.4689,74.117 10.1623,1.8408 32.3258,1.87 44.3435,0.059 z m -153.9088,-6.2618 c 1.8115,-6.0861 5.6712,-29.5831 4.9675,-30.2412 -0.4695,-0.4391 -7.8985,-1.1161 -16.5088,-1.5044 l -15.65526,-0.7061 -0.7404,7.8509 c -0.4072,4.3179 -0.7874,10.2835 -0.8448,13.2567 l -0.1043,5.406 12.99996,3.7422 c 15.4495,4.4474 15.2252,4.4164 15.8861,2.1959 z m -124.73446,-32.628 c 12.1834,-18.3272 21.8584,-33.7734 21.5,-34.3247 -0.3584,-0.5514 -17.9766,-15.5471 -39.1516,-33.3239 -21.175,-17.7768 -38.8302,-32.8057 -39.2337,-33.3974 -0.4036,-0.5918 -0.6286,-1.3695 -0.5,-1.7283 0.1285,-0.3588 20.2587,-19.2238 44.7337,-41.9222 25.9481,-24.06467 44.5,-41.99854 44.5,-43.01759 0,-1.91638 -60.0256,-73.21974 -62.0539,-73.71275 -0.6898,-0.16766 -12.4348,15.22845 -26.1001,34.21358 -13.6653,18.98513 -25.4085,34.5348 -26.096,34.55484 -1.5167,0.0442 -1.3917,2.95617 -1.2535,-29.21358 l 0.1149,-26.75 -2.8057,0.021 c -4.83,0.0361 -91.285,10.62497 -91.918,11.25798 -0.837,0.837 4.5353,262.05835 5.4058,262.85295 0.8565,0.7817 83.0108,-8.6032 84.0051,-9.5964 0.3858,-0.3852 0.9264,-9.2895 1.2014,-19.7871 0.3133,-11.9615 0.8905,-19.2159 1.546,-19.4329 0.5754,-0.1904 14.6594,12.4857 31.298,28.1692 16.6386,15.6834 30.7928,28.5028 31.454,28.4875 0.6611,-0.015 11.1702,-15.0229 23.3536,-33.3502 z m -400.66893,28.128 c 0.51689,-1.2375 3.48907,-11.7 6.60485,-23.25 3.11578,-11.55 6.18609,-21.5618 6.82292,-22.2484 0.83785,-0.9034 10.51656,-1.57 35.01891,-2.4117 32.89547,-1.1301 33.90165,-1.1087 35.28506,0.7484 0.78321,1.0514 7.04387,11.2492 13.91257,22.6617 6.8687,11.4125 13.02506,20.7577 13.68079,20.7671 2.94258,0.042 100.68043,-37.624 100.68613,-38.8022 0,-0.7069 -33.8159,-52.6819 -75.1539,-115.5 -96.98816,-147.38533 -88.7705,-135.23127 -90.3166,-133.57976 -1.6252,1.736 -144.5234,260.41256 -144.5234,261.61846 0,0.7181 93.48304,31.9729 96.27144,32.1871 0.42429,0.033 1.19435,-0.9532 1.71123,-2.1907 z m 31.55054,-99.6963 c -0.55324,-0.8951 18.83162,-46.487 20.62296,-48.5037 1.5113,-1.7015 2.65886,0.6351 9.81017,19.975 6.56759,17.7612 8.09016,23.4531 6.28366,23.4905 -0.4125,0.01 -8.175,1.3583 -17.25,2.9994 -18.45285,3.3369 -18.65166,3.3577 -19.46679,2.0388 z m -240.53038,90.1963 c 0.005,-16.3456 1.26808,-47.0703 1.98301,-48.2271 0.37044,-0.5994 4.23767,-1.9443 8.59385,-2.9886 57.05902,-13.6796 103.53429,-58.9149 116.41857,-113.3125 8.02276,-33.87217 2.13802,-63.21052 -16.49826,-82.25199 -13.77496,-14.07445 -33.70392,-21.44797 -58,-21.45941 -14.50685,-0.007 -134.0734,12.3184 -135.86514,14.00534 -0.88391,0.83222 4.00906,254.96156 4.92667,255.87916 0.57333,0.5733 67.76758,7.8067 74.18847,7.9862 l 4.25,0.1189 0.003,-9.75 z m -7.21137,-130.5 c -0.92773,-2.7447 2.4431,-48.2841 3.72525,-50.3276 1.76124,-2.80721 14.88194,-6.64524 24.48329,-7.16182 9.84204,-0.52954 15.39453,2.04721 18.75,8.70132 4.68288,9.2864 1.89574,18.9882 -8.5781,29.8597 -11.71245,12.157 -36.53183,24.3974 -38.38044,18.9284 z m -392.91997,130.7851 c 45.85432,-4.6446 83.58039,-8.6536 83.8357,-8.909 0.66915,-0.6691 -3.28701,-89.5393 -4.01852,-90.2708 -0.33646,-0.3364 -18.04674,3.0153 -39.35617,7.4482 -21.30943,4.433 -39.10174,7.8391 -39.53846,7.5692 -1.2878,-0.7959 -0.97371,-10.6175 3.17644,-99.32859 2.17309,-46.45073 3.76296,-84.644 3.53304,-84.87393 -0.54913,-0.54913 -95.48225,12.69864 -96.79004,13.5069 -0.97726,0.60398 -0.7341,53.75649 0.93816,205.07292 l 0.64375,58.25 2.1023,-0.01 c 1.15627,-0.01 39.61948,-3.8101 85.4738,-8.4548 z m 123.85768,4.8607 c -0.33229,-0.3323 -1.1948,-0.3678 -1.91667,-0.079 -0.79773,0.3192 -0.56078,0.5562 0.60417,0.6042 1.05416,0.043 1.64479,-0.193 1.3125,-0.5253 z m 75.60092,-5.9318 c 45.72803,-2.4948 83.46342,-4.8575 83.85643,-5.2505 1.16374,-1.1638 2.28459,-89.2135 1.13567,-89.2135 -0.547,0 -19.85577,1.7965 -42.90837,3.9922 -45.49309,4.3332 -48.96812,4.538 -49.95324,2.944 -0.3616,-0.5851 -0.34103,-4.6383 0.0457,-9.0072 0.62138,-7.0197 0.95263,-7.9988 2.84843,-8.4191 1.1799,-0.2615 13.33317,-1.3587 27.00726,-2.438 13.67408,-1.0794 25.04752,-2.1481 25.2743,-2.3748 0.22678,-0.2268 1.89023,-12.6736 3.69654,-27.6596 2.79793,-23.2128 3.07099,-27.3291 1.84416,-27.7998 -0.79203,-0.304 -12.06837,0.1989 -25.05852,1.1175 -12.99015,0.9186 -25.75596,1.6644 -28.36846,1.6575 l -4.74999,-0.0127 0,-7.441 c 0,-4.7322 0.43933,-7.7125 1.20686,-8.1868 0.66378,-0.4103 19.17812,-1.5512 41.14298,-2.53538 21.96487,-0.98419 40.11554,-1.96886 40.33482,-2.18815 0.66067,-0.66067 10.33241,-80.96493 9.81378,-81.48356 -0.74325,-0.74326 -178.76993,12.70633 -179.63425,13.57104 -0.73917,0.73949 0.93448,251.49535 1.69539,254.01385 0.51326,1.6988 -2.79084,1.8185 90.77051,-3.286 z m -92.59659,-7.6876 c -0.21125,-2.352 -0.38706,-0.6764 -0.39069,3.7236 -0.004,4.4 0.16921,6.3244 0.38408,4.2764 0.21488,-2.0479 0.21785,-5.6479 0.007,-8 z m 145.99567,6.6194 c -0.33229,-0.3323 -1.1948,-0.3678 -1.91667,-0.079 -0.79773,0.3192 -0.56078,0.5562 0.60417,0.6042 1.05416,0.043 1.64479,-0.193 1.3125,-0.5253 z m 670.97813,-15.6341 c -0.2392,-1.244 -0.444,-0.4617 -0.4551,1.7383 -0.011,2.2 0.1846,3.2177 0.4349,2.2617 0.2503,-0.9561 0.2594,-2.7561 0.02,-4 z m 215.02186,-1.3659 c -0.3323,-0.3323 -1.1948,-0.3678 -1.9167,-0.079 -0.7977,0.3192 -0.5608,0.5562 0.6042,0.6042 1.0541,0.043 1.6448,-0.193 1.3125,-0.5253 z m -1053.04605,-2.5833 c -0.31922,-0.7977 -0.55618,-0.5608 -0.60416,0.6042 -0.0434,1.0541 0.19293,1.6448 0.52522,1.3125 0.33229,-0.3323 0.36781,-1.1948 0.0789,-1.9167 z m 1035.56685,1.5252 c -0.6875,-0.2774 -1.8125,-0.2774 -2.5,0 -0.6875,0.2774 -0.125,0.5044 1.25,0.5044 1.375,0 1.9375,-0.227 1.25,-0.5044 z m -718.56063,-10.0877 c -0.25153,-0.9625 -0.45733,-0.175 -0.45733,1.75 0,1.925 0.2058,2.7125 0.45733,1.75 0.25152,-0.9625 0.25152,-2.5375 0,-3.5 z m 430.99997,0 c -0.2515,-0.9625 -0.4573,-0.175 -0.4573,1.75 0,1.925 0.2058,2.7125 0.4573,1.75 0.2516,-0.9625 0.2516,-2.5375 0,-3.5 z m -514.99997,-3 c -0.25153,-0.9625 -0.45733,-0.175 -0.45733,1.75 0,1.925 0.2058,2.7125 0.45733,1.75 0.25152,-0.9625 0.25152,-2.5375 0,-3.5 z m 316.03984,-2.8542 c -0.33229,-0.3323 -1.1948,-0.3678 -1.91667,-0.079 -0.79773,0.3192 -0.56078,0.5562 0.60417,0.6042 1.05416,0.043 1.64479,-0.193 1.3125,-0.5253 z m 30,-1 c -0.33229,-0.3323 -1.1948,-0.3678 -1.91667,-0.079 -0.79773,0.3192 -0.56078,0.5562 0.60417,0.6042 1.05416,0.043 1.64479,-0.193 1.3125,-0.5253 z m -580.04606,-7.5833 c -0.31922,-0.7977 -0.55618,-0.5608 -0.60416,0.6042 -0.0434,1.0541 0.19293,1.6448 0.52522,1.3125 0.33229,-0.3323 0.36781,-1.1948 0.0789,-1.9167 z m 202.02262,-7.0625 c -0.23835,-1.2375 -0.43337,-0.225 -0.43337,2.25 0,2.475 0.19502,3.4875 0.43337,2.25 0.23836,-1.2375 0.23836,-3.2625 0,-4.5 z m -376.97069,-27.5 c -0.206,-2.6125 -0.37454,-0.475 -0.37454,4.75 0,5.225 0.16854,7.3625 0.37454,4.75 0.206,-2.6125 0.206,-6.8875 0,-9.5 z m 173.92724,10.5 c -0.27741,-0.6875 -0.50439,-0.125 -0.50439,1.25 0,1.375 0.22698,1.9375 0.50439,1.25 0.27741,-0.6875 0.27741,-1.8125 0,-2.5 z m 749.02702,-11.5 c -0.2515,-0.9625 -0.4573,-0.175 -0.4573,1.75 0,1.925 0.2058,2.7125 0.4573,1.75 0.2516,-0.9625 0.2516,-2.5375 0,-3.5 z m -514.99997,-2 c -0.25153,-0.9625 -0.45733,-0.175 -0.45733,1.75 0,1.925 0.2058,2.7125 0.45733,1.75 0.25152,-0.9625 0.25152,-2.5375 0,-3.5 z m -316.00622,-8.4375 c -0.31922,-0.7977 -0.55618,-0.5608 -0.60416,0.6042 -0.0434,1.0541 0.19293,1.6448 0.52522,1.3125 0.33229,-0.3323 0.36781,-1.1948 0.0789,-1.9167 z m 81,-1 c -0.31922,-0.7977 -0.55618,-0.5608 -0.60416,0.6042 -0.0434,1.0541 0.19293,1.6448 0.52522,1.3125 0.33229,-0.3323 0.36781,-1.1948 0.0789,-1.9167 z m 111,-10 c -0.31922,-0.7977 -0.55618,-0.5608 -0.60416,0.6042 -0.0434,1.0541 0.19293,1.6448 0.52522,1.3125 0.33229,-0.3323 0.36781,-1.1948 0.0789,-1.9167 z m -87.95238,-18.0927 c -0.20972,-2.3209 -0.37882,-0.1698 -0.37577,4.7802 0.003,4.95 0.17464,6.8489 0.38131,4.2198 0.20668,-2.6291 0.20418,-6.6791 -0.006,-9 z m -103.04762,8.0927 c -0.31922,-0.7977 -0.55618,-0.5608 -0.60416,0.6042 -0.0434,1.0541 0.19293,1.6448 0.52522,1.3125 0.33229,-0.3323 0.36781,-1.1948 0.0789,-1.9167 z m 1083.17149,-3.1373 c 1.4898,-1.7951 6.4056,-22.4451 5.6387,-23.6861 -0.3363,-0.544 -1.3077,-0.9891 -2.1589,-0.9891 -2.0755,0 -16.3392,13.9162 -16.3165,15.919 0.017,1.5074 9.3402,10.081 10.9623,10.081 0.4262,0 1.2697,-0.5962 1.8744,-1.3248 z m -254.1653,-15.4252 c -0.2515,-0.9625 -0.4573,-0.175 -0.4573,1.75 0,1.925 0.2058,2.7125 0.4573,1.75 0.2516,-0.9625 0.2516,-2.5375 0,-3.5 z m -515.02702,0.5 c -0.27741,-0.6875 -0.50439,-0.125 -0.50439,1.25 0,1.375 0.22698,1.9375 0.50439,1.25 0.27741,-0.6875 0.27741,-1.8125 0,-2.5 z m -312.97917,-3.9375 c -0.31922,-0.7977 -0.55618,-0.5608 -0.60416,0.6042 -0.0434,1.0541 0.19293,1.6448 0.52522,1.3125 0.33229,-0.3323 0.36781,-1.1948 0.0789,-1.9167 z m 0.97917,-22.0625 c -0.27741,-0.6875 -0.50439,-0.125 -0.50439,1.25 0,1.375 0.22698,1.9375 0.50439,1.25 0.27741,-0.6875 0.27741,-1.8125 0,-2.5 z m 1.02083,-20.9375 c -0.31922,-0.7977 -0.55618,-0.5608 -0.60416,0.6042 -0.0434,1.0541 0.19293,1.6448 0.52522,1.3125 0.33229,-0.3323 0.36781,-1.1948 0.0789,-1.9167 z m 310.00988,-1.5435 c -0.25354,-0.9729 -0.47766,-0.419 -0.49804,1.231 -0.0204,1.65 0.18706,2.4461 0.46099,1.769 0.27392,-0.677 0.29059,-2.027 0.0371,-3 z m 515.00001,-1 c -0.2536,-0.9729 -0.4777,-0.419 -0.4981,1.231 -0.02,1.65 0.1871,2.4461 0.461,1.769 0.274,-0.677 0.2906,-2.027 0.037,-3 z m -610.96383,0.1268 c -0.33229,-0.3323 -1.1948,-0.3678 -1.91667,-0.079 -0.79773,0.3192 -0.56078,0.5562 0.60417,0.6042 1.05416,0.043 1.64479,-0.193 1.3125,-0.5253 z m -310.99077,-14.61228 c -0.20264,-2.90594 -0.37057,-0.78352 -0.37317,4.71648 -0.003,5.5 0.16319,7.8776 0.36844,5.28352 0.20525,-2.59406 0.20738,-7.09406 0.005,-10 z m 333.99077,13.61228 c -0.33229,-0.3323 -1.1948,-0.3678 -1.91667,-0.079 -0.79773,0.3192 -0.56078,0.5562 0.60417,0.6042 1.05416,0.043 1.64479,-0.193 1.3125,-0.5253 z m 289.93311,-13.6458 c -0.27741,-0.6875 -0.50439,-0.125 -0.50439,1.25 0,1.375 0.22698,1.9375 0.50439,1.25 0.27741,-0.6875 0.27741,-1.8125 0,-2.5 z m -525.97917,-4.9375 c -0.31922,-0.79773 -0.55618,-0.56078 -0.60416,0.60417 -0.0434,1.05416 0.19293,1.64479 0.52522,1.3125 0.33229,-0.33229 0.36781,-1.1948 0.0789,-1.91667 z m 770.28319,-43.41833 c 9.9916,-17.3832 17.9542,-32.15906 17.6947,-32.83523 -0.501,-1.3055 -62.60751,-36.55894 -64.40646,-36.55894 -1.84481,0 -37.61717,63.20651 -36.63142,64.7244 0.99625,1.53406 62.25938,36.22462 64.02688,36.2555 0.6324,0.0111 9.3248,-14.20252 19.3163,-31.58573 z m -769.30402,21.35583 c -0.27741,-0.6875 -0.50439,-0.125 -0.50439,1.25 0,1.375 0.22698,1.9375 0.50439,1.25 0.27741,-0.6875 0.27741,-1.8125 0,-2.5 z m 97.07276,-10.5 c -0.206,-2.6125 -0.37454,-0.475 -0.37454,4.75 0,5.225 0.16854,7.3625 0.37454,4.75 0.206,-2.6125 0.206,-6.8875 0,-9.5 z m 822.95426,5 c -0.2515,-0.9625 -0.4573,-0.175 -0.4573,1.75 0,1.925 0.2058,2.7125 0.4573,1.75 0.2516,-0.9625 0.2516,-2.5375 0,-3.5 z m -612.99631,-0.98097 c -0.25354,-0.97297 -0.47766,-0.41903 -0.49804,1.23097 -0.0204,1.65 0.18706,2.44606 0.46099,1.76903 0.27392,-0.67703 0.29059,-2.02703 0.0371,-3 z m 515.00001,-2 c -0.2536,-0.97297 -0.4777,-0.41903 -0.4981,1.23097 -0.02,1.65 0.1871,2.44606 0.461,1.76903 0.274,-0.67703 0.2906,-2.02703 0.037,-3 z m -821.00989,-12.45653 c -0.31922,-0.79773 -0.55618,-0.56078 -0.60416,0.60417 -0.0434,1.05416 0.19293,1.64479 0.52522,1.3125 0.33229,-0.33229 0.36781,-1.1948 0.0789,-1.91667 z m 1,-22 c -0.31922,-0.79773 -0.55618,-0.56078 -0.60416,0.60417 -0.0434,1.05416 0.19293,1.64479 0.52522,1.3125 0.33229,-0.33229 0.36781,-1.1948 0.0789,-1.91667 z m 656.81689,-72.79462 c 20.9,-17.03449 38.12861,-31.56949 38.28581,-32.30002 0.31289,-1.45412 -78.26651,-217.59856 -79.58876,-218.92081 -0.4482,-0.4482 -17.80623,16.73911 -38.5734,38.19402 -20.76717,21.45491 -38.35435,39.00893 -39.08263,39.00893 -0.72827,0 -18.98987,-22.275 -40.58131,-49.5 -21.59145,-27.225 -39.541,-49.5 -39.88788,-49.5 -0.34688,0 -17.88554,50.2875 -38.9748,111.75 -21.08926,61.4625 -38.78369,112.59233 -39.32096,113.62183 -0.95455,1.82912 -1.01834,1.82912 -2.79481,0 -0.99987,-1.0295 -33.64078,-50.24683 -72.53534,-109.37183 -86.93888,-132.15887 -78.37006,-119.5246 -79.93195,-117.85543 -1.61894,1.73013 -144.51397,260.40781 -144.51397,261.60839 0,1.29755 96.20747,32.43957 97.18772,31.45932 0.45241,-0.45241 3.5746,-10.92274 6.9382,-23.26742 3.3636,-12.34467 6.63916,-23.00666 7.27901,-23.6933 0.84163,-0.90316 10.52833,-1.57016 35.02442,-2.41167 32.89547,-1.13007 33.90165,-1.10872 35.28506,0.74844 0.78321,1.05142 7.04387,11.24917 13.91257,22.66167 6.8687,11.4125 13.07653,20.75 13.79516,20.75 0.71864,0 22.74924,-8.1123 48.9569,-18.02733 38.67762,-14.63274 48.01843,-17.83032 49.6053,-16.98105 1.07526,0.57546 14.90616,9.43242 30.73533,19.68215 15.82918,10.24972 29.51782,18.8306 30.41919,19.06861 1.3544,0.35764 4.27716,-7.61014 16.83893,-45.90481 8.36004,-25.48566 15.59098,-46.746 16.06876,-47.24519 0.51801,-0.54122 1.3904,-0.46643 2.16107,0.18529 0.71081,0.6011 12.54238,18.43175 26.29238,39.62367 13.75,21.19191 25.55933,38.43353 26.24296,38.31471 0.68363,-0.11883 10.65228,-16.64105 22.15256,-36.71605 11.50028,-20.075 21.56658,-36.63358 22.36955,-36.79685 1.09614,-0.22287 5.36358,11.24039 17.12451,46 8.6155,25.46327 16.41326,48.65935 17.32836,51.54685 0.91509,2.8875 2.14041,5.24767 2.72293,5.24483 0.58252,-0.003 18.15913,-13.94247 39.05913,-30.97695 z M 107.10465,422.98739 c -0.55324,-0.89517 18.83162,-46.48701 20.62296,-48.50374 1.5113,-1.70146 2.65886,0.63514 9.81017,19.97496 6.56759,17.7612 8.09016,23.45314 6.28366,23.49059 -0.4125,0.009 -8.175,1.35825 -17.25,2.99934 -18.45285,3.33693 -18.65166,3.35775 -19.46679,2.03885 z m 622.96679,100.91843 c 29.6837,-6.19533 55.0239,-19.17892 72.8054,-37.30339 51.3212,-52.3108 64.7785,-131.67747 33.2622,-196.16878 -4.2518,-8.70042 -6.9464,-12.68671 -12.8894,-19.06831 -19.7673,-21.22587 -46.9522,-32.43169 -78.6782,-32.43169 -14.5355,0 -25.6693,1.88871 -41.5061,7.04097 -59.6935,19.42039 -104.76317,67.32984 -117.6646,125.07853 -2.00224,8.96231 -2.3138,13.0446 -2.28045,29.8805 0.0436,22.00139 1.67791,32.23959 7.8827,49.38057 9.85995,27.23856 23.14984,45.22587 42.94715,58.12726 13.644,8.89139 27.6119,14.18673 45.1213,17.1058 11.5027,1.91768 38.0394,1.06358 51,-1.64146 z m -42.214,-74.42292 c -13.3224,-4.16357 -21.5602,-13.91741 -24.8457,-29.41818 -6.4229,-30.30206 8.6566,-66.72398 33.9438,-81.98568 11.7227,-7.07503 17.0114,-8.64539 29.1159,-8.64539 10.7401,0 11.1536,0.0846 17.5,3.57879 7.9942,4.4015 12.9256,10.56515 16.7386,20.92121 2.4932,6.77148 2.7535,8.7142 2.6804,20 -0.07,10.81498 -0.4548,13.64581 -2.8537,21 -3.4638,10.61875 -10.436,24.2913 -16.2059,31.78003 -14.04,18.22224 -38.6486,28.21486 -56.0734,22.76922 z m 39.983,-119.20519 c -0.677,-0.27392 -2.027,-0.29059 -3,-0.0371 -0.9729,0.25354 -0.419,0.47766 1.231,0.49804 1.65,0.0204 2.4461,-0.18706 1.769,-0.46099 z m -837.77945,190.13853 c 59.85187,-9.02081 94.43427,-42.37625 94.49731,-91.14462 0.0185,-14.28229 -2.05805,-24.04589 -7.42823,-34.92686 -5.36916,-10.87892 -14.0463,-20.73846 -24.74751,-28.11974 -8.82706,-6.08858 -26.89031,-15.2234 -35.81112,-18.11017 -7.88054,-2.55013 -25.93606,-6.6918 -35.5,-8.14318 -13.64411,-2.07056 -18.30984,-5.07434 -17.01799,-10.95613 1.72962,-7.87487 14.54839,-13.40375 30.97749,-13.36094 13.94755,0.0363 29.58333,3.58023 48.38502,10.96658 6.23949,2.45122 11.59761,4.20367 11.90694,3.89434 0.97229,-0.97229 19.18722,-73.87208 18.66784,-74.71244 -0.27176,-0.43972 -4.63978,-2.12737 -9.7067,-3.75033 -21.42127,-6.86134 -49.40859,-10.0273 -72.4626,-8.19707 -46.35178,3.67983 -78.6153,22.53643 -94.71481,55.3566 -6.31755,12.87886 -7.71539,18.8436 -8.27226,35.29873 -0.53761,15.88591 0.38869,22.08598 4.6296,30.98763 10.27448,21.5661 33.06869,37.59758 68.29068,48.02978 25.72195,7.61844 33.13189,13.77007 28.37677,23.55801 -1.99723,4.11109 -4.68633,6.13179 -11.023,8.28314 -16.87962,5.73079 -35.89875,3.17997 -63.92534,-8.57357 -6.53859,-2.7421 -12.27105,-4.60294 -12.73878,-4.13521 -1.17209,1.17209 -23.87286,65.21779 -23.87286,67.35251 0,4.51994 44.34067,18.7668 66,21.2061 9.40567,1.05928 36.28081,0.58478 45.48955,-0.80316 z m 211.23962,-43.08676 c -0.33229,-0.33229 -1.1948,-0.36781 -1.91667,-0.0789 -0.79773,0.31922 -0.56078,0.55618 0.60417,0.60416 1.05416,0.0434 1.64479,-0.19293 1.3125,-0.52522 z m 30,-1 c -0.33229,-0.33229 -1.1948,-0.36781 -1.91667,-0.0789 -0.79773,0.31922 -0.56078,0.55618 0.60417,0.60416 1.05416,0.0434 1.64479,-0.19293 1.3125,-0.52522 z M 855.23374,362.68365 c -0.2774,-0.6875 -0.5044,-0.125 -0.5044,1.25 0,1.375 0.227,1.9375 0.5044,1.25 0.2774,-0.6875 0.2774,-1.8125 0,-2.5 z m -946.4123,-121.4734 c -1.7875,-0.22182 -4.7125,-0.22182 -6.5,0 -1.7875,0.22183 -0.325,0.40333 3.25,0.40333 3.575,0 5.0375,-0.1815 3.25,-0.40333 z"
         id="path4196"
         inkscape:connector-curvature="0" />
      <path
         style="fill:#101134;stroke:#101134;stroke-opacity:1"
         d="m 1136.5323,940.87405 c -10.5885,-1.5594 -51.8562,-11.8613 -59.6347,-14.887 -4.3044,-1.6743 -8.2026,-3.0463 -8.6627,-3.0488 -0.4601,0 -2.8094,1.4122 -5.2206,3.1438 -3.5549,2.5529 -7.8159,3.9625 -22.5308,7.4532 l -18.1469,4.3048 -16.6326,-3.944 c -9.14786,-2.1692 -23.56276,-5.8398 -32.03306,-8.1567 -14.7677,-4.0396 -15.795,-4.4916 -25,-11.0007 -5.2797,-3.7335 -10.1292,-6.7919 -10.7767,-6.7965 -0.6475,0 -2.469,1.5586 -4.0478,3.474 -3.7835,4.5901 -21.7338,17.2915 -26.2344,18.5631 -1.9473,0.5502 -10.0513,2.5312 -18.0089,4.4021 l -14.4683,3.4018 -17.012,-4.0128 c -18.9766,-4.4762 -18.5327,-4.3024 -27.5514,-10.7858 -3.575,-2.57 -7.2125,-4.9399 -8.0833,-5.2664 -0.8708,-0.3266 -4.2458,0.011 -7.5,0.7495 -6.1164,1.3886 -83.4801,10.4856 -89.066,10.4731 -1.7321,0 -10.8811,-1.8309 -20.3311,-4.06 -16.7906,-3.9605 -17.3497,-4.1769 -24.5475,-9.5 -4.0511,-2.9959 -8.1438,-5.4471 -9.0949,-5.4471 -0.9511,0 -7.649,2.2187 -14.8844,4.9303 -7.2353,2.7117 -21.1745,6.8292 -30.97594,9.15 l -17.82078,4.2197 -17.9674,-4.1989 c -17.70056,-4.1366 -18.07688,-4.2799 -25.33838,-9.65 -4.05403,-2.9981 -7.80958,-5.4511 -8.34567,-5.4511 -0.53609,0 -6.05294,3.694 -12.25967,8.2089 l -11.28496,8.2089 -17.97087,4.2688 -17.97086,4.2689 -17.52914,-4.0935 c -16.54838,-3.8644 -110.9937,-33.7238 -117.79797,-37.2425 -3.74754,-1.9379 -4.34082,-1.4931 -11.53175,8.646 -4.28859,6.0468 -7.57973,9.2663 -14.87039,14.5469 -5.14958,3.7298 -9.81351,7.06 -10.3643,7.4004 -0.55079,0.3404 -8.90417,2.4774 -18.56306,4.7489 l -17.56162,4.13 -39.42002,-4.0729 c -33.43337,-3.4543 -41.99576,-4.6801 -56.38036,-8.0717 -13.31853,-3.1402 -18.14985,-3.8797 -22.5,-3.4442 -3.04681,0.3051 -43.4944,2.5954 -89.88354,5.0896 l -84.34387,4.535 -17.30572,-4.0698 c -9.51815,-2.2384 -18.68935,-4.6516 -20.38046,-5.3626 -2.66347,-1.1199 -13.41073,-0.2428 -80.3504,6.5576 l -77.27567,7.8505 -11.5,-2.5833 c -24.52879,-5.5101 -24.76756,-5.5999 -35.29928,-13.2776 -8.17729,-5.9613 -10.96894,-8.7587 -16.86588,-16.9003 -3.88663,-5.3661 -7.44405,-10.6758 -7.90538,-11.7993 -0.46132,-1.1235 -2.61239,-9.9177 -4.78016,-19.5427 l -3.94139,-17.5 -1.05427,-130.9468 -1.05427,-130.94683 3.11279,-13.23612 3.11278,-13.23613 -2.92061,-3.32639 c -1.60634,-1.82952 -5.71324,-7.19478 -9.12644,-11.9228 -6.14987,-8.51888 -6.24223,-8.74754 -10.24186,-25.35799 -2.21982,-9.21888 -4.03603,-17.78848 -4.03603,-19.04356 0,-6.7954 8.97299,-39.15282 17.57563,-63.37935 5.18341,-14.59734 9.42437,-27.39967 9.42437,-28.44961 0,-1.04995 -1.34255,-4.66421 -2.98344,-8.03171 -1.74486,-3.58084 -5.16674,-15.04851 -8.24246,-27.62271 -5.18616,-21.20219 -5.25824,-21.70777 -5.20347,-36.5 0.0546,-14.73861 0.15346,-15.4008 5.6747,-38 6.42215,-26.2868 7.40808,-29.33127 12.62263,-38.97783 6.0279,-11.15117 24.24869,-35.4318 32.30553,-43.04967 7.82423,-7.39791 26.73381,-21.38813 38.26051,-28.30695 10.54015,-6.32666 20.62938,-9.77834 47.50389,-16.2518 34.17844,-8.23282 42.11913,-9.27011 66.06211,-8.62968 10.86309,0.29057 23.04335,1.19254 27.5,2.03644 14.71044,2.7855 55.91055,12.88856 63.5,15.57143 9.84208,3.47917 26.66207,15.38236 32.05845,22.68718 2.14345,2.90149 4.29087,5.51874 4.77205,5.81612 1.58982,0.98256 3.94673,-1.79584 8.39411,-9.89524 2.41604,-4.4 7.59405,-12.43728 11.5067,-17.86061 6.13766,-8.50746 8.53072,-10.87617 17.43843,-17.26106 5.67849,-4.07024 11.00082,-7.60572 11.8274,-7.85662 6.69303,-2.03163 31.87658,-7.52171 34.50286,-7.52171 2.62628,0 27.80983,5.49008 34.50286,7.52171 0.82658,0.2509 6.10711,3.75642 11.73451,7.79004 12.3777,8.87211 11.98179,8.34443 53.03581,70.68825 16.11702,24.475 29.93102,44.63965 30.69778,44.81033 0.76675,0.17068 1.8222,-0.50432 2.34545,-1.5 0.52324,-0.99568 7.1911,-20.03533 14.81747,-42.31033 l 13.86612,-40.5 7.5,-10.48465 c 6.58319,-9.203 8.75426,-11.38811 17.76052,-17.87535 l 10.26053,-7.3907 16.23947,-3.8434 c 8.93172,-2.11387 17.4686,-3.85746 18.97086,-3.87465 3.08448,-0.0353 31.99559,6.4762 35.63901,8.02678 1.30372,0.55484 6.75048,4.1869 12.10391,8.07123 8.6439,6.27182 11.27177,9.00285 23.47463,24.39606 7.55761,9.5335 14.43149,17.59855 15.27527,17.92234 1.03132,0.39576 4.03196,-1.99984 9.15498,-7.30898 4.19145,-4.34373 11.89582,-10.97561 17.12082,-14.7375 10.06868,-7.24924 12.87104,-8.2502 39.1196,-13.97291 l 7.61961,-1.66123 17.689,4.15993 17.68901,4.15993 10.19139,7.40791 c 8.75453,6.36349 11.22422,8.84093 17.51709,17.57202 4.02913,5.59026 7.56477,10.78715 7.85698,11.54864 1.07905,2.81195 4.57265,1.16086 17.54153,-8.29016 19.52497,-14.22875 28.29199,-19.72419 41.98879,-26.32002 16.1062,-7.75603 25.5822,-10.81979 53.8364,-17.4062 44.69,-10.41779 50.146,-10.29338 101.2043,2.30777 24.4333,6.03012 33.8766,10.44191 55.2416,25.80815 18.7584,13.49158 25.5015,20.16722 38.1669,37.78499 10.9129,15.18004 16.4285,25.24404 21.1164,38.52993 3.8054,10.78458 15.7637,61.53404 17.3121,73.47007 1.339,10.32112 0.7064,38.71871 -1.0692,48 -1.8447,9.64241 -10.9587,48.36544 -13.1804,56 -2.5512,8.76703 -10.107,27.39116 -13.3746,32.96692 -1.3566,2.31484 -2.4665,4.87733 -2.4665,5.69443 0,0.81709 3.2486,3.70256 7.2191,6.41214 3.9705,2.70958 9.2811,6.55377 11.8012,8.54264 5.6379,4.44928 62.6842,71.41739 73.7889,86.6226 l 8.07516,11.057 4.0578,17.20285 c 2.2318,9.46157 4.0578,19.40753 4.0578,22.10213 0,2.69461 0.445,4.89929 0.9888,4.89929 0.5439,0 4.0314,-3.20282 7.75,-7.11738 6.074,-6.39394 22.3344,-19.02693 37.2612,-28.94879 13.0886,-8.70004 23.7679,-12.54529 55,-19.80371 27.5468,-6.40195 36.2417,-7.53182 52.5,-6.82217 12.8883,0.56255 21.3536,2.15738 53.2289,10.02812 l 10.2289,2.52575 8.0845,-1.93091 c 7.5789,-1.81017 12.3573,-1.93091 76.4203,-1.93091 l 68.336,0 17.3434,4.09097 c 9.5388,2.25004 17.7967,4.35384 18.3507,4.67513 0.554,0.32129 5.3507,3.6663 10.6593,7.43335 8.3279,5.90956 10.6902,8.28077 17.2195,17.28405 l 7.5674,10.43484 4.1664,17.8282 4.1663,17.82816 -4.1691,17.728 c -3.3276,14.15 -5.3733,20.3769 -10.1358,30.8525 -3.2817,7.2185 -5.9667,13.8574 -5.9667,14.753 0,0.8956 3.38,6.3438 7.5111,12.1072 4.131,5.7634 7.7163,11.1552 7.9672,11.9817 1.9503,6.4251 7.6624,32.1068 7.6741,34.5029 0.024,5.0063 -18.1045,90.743 -21.6741,102.5029 -0.2509,0.8265 -3.7441,6.0899 -7.7627,11.6964 -6.1822,8.6248 -8.7616,11.2489 -16.7611,17.0517 -5.2,3.7719 -9.9078,7.1301 -10.4618,7.4626 -0.554,0.3324 -8.8119,2.4454 -18.3507,4.6954 l -17.3434,4.091 -74.8238,0 c -72.3177,0 -75.1275,-0.07 -83.8943,-2.0884 l -9.0705,-2.0885 -10.755,2.5484 c -18.6949,4.4296 -40.0782,5.8097 -55.2941,3.5689 z m 40.334,-78.4286 c 13.742,-2.0713 30.1839,-7.7691 40.573,-14.0601 4.7477,-2.8748 8.7711,-5.1011 8.9409,-4.9472 0.1699,0.1539 -1.0676,3.3156 -2.75,7.026 -5.3209,11.7351 -14.0102,10.4695 71.8822,10.4695 43.4058,0 75.1753,-0.3792 75.4979,-0.9012 1.0045,-1.6252 14.2313,-67.5881 13.8076,-68.8592 -0.3154,-0.9464 -6.9758,-1.2396 -28.1632,-1.2396 -15.2625,0 -27.9942,-0.2442 -28.2926,-0.5427 -0.2985,-0.2984 11.5647,-27.1644 26.3627,-59.7022 14.798,-32.5377 26.6813,-59.7435 26.4074,-60.4573 -0.7182,-1.8716 -136.8067,-1.9186 -138.3412,-0.048 -1.3712,1.6718 -14.5007,67.4861 -13.7162,68.7555 0.3772,0.6103 9.0675,0.9945 22.4966,0.9945 12.0351,0 22.0723,0.3375 22.305,0.75 0.4312,0.7645 -41.7311,93.0761 -43.1676,94.5126 -0.4334,0.4334 -10.4291,-12.0272 -22.2127,-27.6901 -12.3123,-16.3658 -22.1167,-28.4981 -23.0517,-28.5253 -0.8949,-0.026 -6.9699,2.5403 -13.5,5.7028 -11.7664,5.6984 -11.9538,5.7499 -20.873,5.7428 -7.3029,-0.01 -9.7543,-0.4135 -13,-2.1623 -12.8399,-6.9182 -19.2806,-24.0373 -13.7424,-36.5269 2.7124,-6.117 9.9778,-13.3067 16.5291,-16.3568 9.4703,-4.4092 25.1169,-2.9272 37.951,3.5946 3.2022,1.6272 6.1947,2.9586 6.65,2.9586 0.7522,0 38.4108,-48.8832 42.4935,-55.1593 1.6675,-2.5633 1.6528,-2.7311 -0.4062,-4.6494 -3.0465,-2.8382 -24.1313,-13.5029 -32.8129,-16.5967 -10.4006,-3.70645 -22.5838,-5.59553 -36.0431,-5.5887 -54.4096,0.0276 -95.1134,28.8119 -107.2149,75.8187 -3.9672,15.4099 -4.1511,38.7543 -0.4216,53.5116 9.541,37.753 41.5677,66.8895 81.4689,74.117 10.1623,1.8408 32.3258,1.87 44.3435,0.059 z m -152.9354,-4.7618 c 0.7731,-1.2375 2.6438,-8.96191 4.1573,-17.1653 0.9377,-5.08283 1.5479,-8.44234 1.8669,-10.71869 0.5822,-4.15456 0.1947,-4.7011 -0.9406,-5.53131 -1.0039,-0.7341 -3.8769,-1.3367 -6.3842,-1.3392 -2.5074,0 -9.5089,-0.2568 -15.5589,-0.5649 -6.05,-0.3082 -11.51756,-0.1937 -12.15026,0.2545 -1.4357,1.0171 -3.8768,27.1878 -2.6503,28.4143 0.818,0.818 26.32766,8.5413 29.02746,8.7883 0.6749,0.062 1.8595,-0.9002 2.6326,-2.1377 z m -124.67096,-32.25 c 12.2037,-18.15 22.2162,-33.9557 22.25,-35.1237 0.046,-1.6 -9.6931,-10.32 -39.494,-35.3599 -38.91,-32.6938 -39.5261,-33.2689 -37.75,-35.2373 0.993,-1.1006 21.2856,-20.0556 45.0946,-42.1223 30.1344,-27.92913 43.2013,-40.66339 43,-41.90529 -0.159,-0.98123 -14.4328,-18.44739 -31.7195,-38.81369 -22.5277,-26.54107 -31.9378,-36.94583 -33.2218,-36.73373 -1.0369,0.17127 -11.8068,14.16232 -25.5696,33.21708 -13.078,18.10664 -24.2282,33.06932 -24.7782,33.2504 -0.6556,0.21584 -0.8805,-8.7955 -0.6529,-26.16529 0.3164,-24.14567 0.1973,-26.55201 -1.343,-27.14306 -2.8417,-1.09049 -94.5737,10.27782 -96.2205,11.92456 -1.2336,1.23363 -1.0697,19.08848 1.2188,132.81872 1.9402,96.4155 2.9573,131.696 3.8208,132.5298 0.8806,0.8504 11.8659,-0.098 43.6461,-3.7693 23.3582,-2.6981 42.8507,-5.287 43.3168,-5.7531 0.466,-0.466 1.1116,-9.2323 1.4345,-19.4806 0.3229,-10.2483 0.8554,-18.6292 1.1833,-18.6241 0.3278,0.01 13.8711,12.5903 30.0961,27.9673 20.6405,19.5617 30.1006,27.8929 31.5,27.7408 1.4155,-0.1538 8.4841,-9.8608 24.1885,-33.2173 z m -401.00508,29.25 c 0.4408,-0.6875 3.59031,-11.3254 6.9989,-23.6399 3.40859,-12.3144 6.60998,-22.8024 7.1142,-23.3066 1.03579,-1.0358 64.13902,-3.426 66.50269,-2.5189 0.83976,0.3222 7.4782,10.515 14.75208,22.6506 8.35364,13.9371 13.81016,22.0648 14.81317,22.0648 2.85178,0 103.05404,-38.3452 103.54494,-39.6244 0.2626,-0.6845 -36.7941,-57.8615 -82.3483,-127.0601 -59.61129,-90.55164 -83.33529,-125.8155 -84.64329,-125.8155 -1.37845,0 -19.38837,31.75927 -74.57046,131.5 -40.0142,72.325 -72.77429,132.2569 -72.80022,133.1819 -0.0374,1.3347 6.71544,3.8757 32.70287,12.3059 18.0125,5.8432 39.95,13.0383 48.75,15.9891 17.82145,5.976 18.05783,6.0286 19.18342,4.2731 z m 33.31196,-105 c -0.009,-2.3717 18.32213,-42.8108 19.26371,-42.497 1.23805,0.4127 13.87701,34.8005 13.50358,36.7403 -0.21058,1.0938 -4.29672,2.2162 -15.27507,4.1957 -17.64742,3.1819 -17.48628,3.1675 -17.49222,1.561 z m -242.19538,103.05 c 0.81983,-0.8198 1.23612,-6.1263 1.314,-16.75 0.0627,-8.5525 0.40021,-21.3607 0.75,-28.4628 l 0.636,-12.9127 9,-2.2645 c 42.05461,-10.581 79.49508,-38.757 100.86967,-75.91 16.69336,-29.0162 22.89748,-63.95708 16.10789,-90.71779 -8.31393,-32.76876 -38.26594,-53.78221 -76.65973,-53.78221 -15.68471,0 -136.03228,12.81445 -137.90139,14.68356 -0.79052,0.79052 -0.36601,36.33004 1.53436,128.45464 1.44498,70.049 2.86501,128.1493 3.15561,129.1118 0.2906,0.9625 1.06054,1.7813 1.71098,1.8195 0.65043,0.038 16.93261,1.7817 36.18261,3.8742 40.24319,4.3747 41.68643,4.4699 43.3,2.8563 z m -6.18174,-141.6328 c -0.32627,-0.5477 1.67479,-36.1486 2.61824,-46.5809 0.23942,-2.6475 0.90311,-3.1341 7.2635,-5.32527 9.78597,-3.37127 22.21343,-4.14494 27.5955,-1.71796 7.45411,3.36133 10.33879,14.76503 5.924,23.41873 -4.59968,9.0161 -19.58546,21.9227 -31.26962,26.9311 -6.06945,2.6017 -11.63716,4.1044 -12.13162,3.2743 z m -395.31997,133.3263 c 59.33662,-5.9986 84.53757,-8.9008 85.48082,-9.844 1.11677,-1.1168 1.01015,-8.8125 -0.64591,-46.6187 -1.18538,-27.0609 -2.3989,-45.6965 -3.01588,-46.3135 -0.70984,-0.7098 -13.15196,1.4967 -39.82485,7.0626 -21.33586,4.4522 -39.05157,7.7856 -39.36825,7.4075 -0.31668,-0.3781 1.34058,-41.1874 3.68281,-90.6874 2.34223,-49.5 4.03351,-90.7875 3.7584,-91.75 -0.27511,-0.9625 -1.03238,-1.75493 -1.68282,-1.76095 -5.4337,-0.0503 -97.46701,13.51929 -98.54474,14.52966 -1.14764,1.0759 -1.1777,21.88186 -0.19085,132.12909 0.64421,71.9687 1.39999,131.6397 1.67952,132.6022 0.27953,0.9625 1.4128,1.75 2.51838,1.75 1.10558,0 39.8746,-3.8279 86.15337,-8.5065 z m 199.70171,-1.066 c 57.73524,-3.1294 84.87414,-4.9518 85.68122,-5.7538 1.64757,-1.6371 3.10859,-91.0675 1.50397,-92.0592 -0.60778,-0.3757 -20.36059,1.1283 -43.89512,3.3422 -23.53454,2.2138 -44.14007,4.1412 -45.79007,4.2831 l -3,0.258 0.13981,-7.3054 c 0.0769,-4.0179 0.3019,-7.4637 0.5,-7.6572 0.19811,-0.1936 12.0424,-1.2914 26.32065,-2.4397 16.96426,-1.3643 26.39151,-2.5223 27.20434,-3.3417 1.18561,-1.1951 7.3352,-47.5123 7.3352,-55.2469 l 0,-3.5069 -5.75,0.062 c -3.1625,0.034 -16.26439,0.8359 -29.11531,1.7813 -17.41706,1.2813 -23.4777,1.426 -23.8068,0.5684 -0.24281,-0.6328 -0.30342,-3.5719 -0.13469,-6.5313 l 0.3068,-5.3808 39.96438,-1.7501 c 28.80947,-1.2616 40.31607,-2.10178 41.22438,-3.01008 1.36519,-1.3652 11.50459,-81.07239 10.60971,-83.4044 -0.28185,-0.73408 -1.63606,-1.33502 -3.00936,-1.33502 -1.37331,0 -42.16266,2.95183 -90.64301,6.55961 -58.87403,4.38126 -88.53486,6.95493 -89.31678,7.75 -1.42095,1.44488 0.2754,252.79009 1.73075,256.44039 0.67404,1.6906 1.71034,2.2509 4.16849,2.2538 1.79929,0 41.29644,-2.0573 87.77144,-4.5763 z m 886.8546,-115.7523 c 1.4898,-1.7951 6.4056,-22.4451 5.6387,-23.6861 -0.3363,-0.544 -1.3077,-0.9891 -2.1589,-0.9891 -2.0755,0 -16.3392,13.9162 -16.3165,15.919 0.017,1.5074 9.3402,10.081 10.9623,10.081 0.4262,0 1.2697,-0.5962 1.8744,-1.3248 z M 666.62264,601.76279 c 10.1469,-17.69397 18.4488,-33.03321 18.4488,-34.0872 0,-1.47209 -7.5343,-6.1777 -32.5,-20.29815 -17.875,-10.10999 -33.20697,-18.39574 -34.07103,-18.41279 -1.81588,-0.0358 -38.42897,63.11596 -38.42897,66.28388 0,1.5279 7.13991,5.98521 32.5,20.28914 17.875,10.08209 33.1981,18.34567 34.0512,18.36352 1.0007,0.0209 8.099,-11.38539 20,-32.1384 z M 554.17591,508.86943 c 20.29254,-16.53533 38.00777,-31.15779 39.36717,-32.49437 l 2.47164,-2.43015 -3.6368,-10.25563 c -9.1069,-25.68108 -75.87845,-208.02159 -76.81994,-209.78079 -0.5813,-1.08616 -1.4659,-1.97484 -1.96577,-1.97484 -0.49987,0 -17.89172,17.55 -38.64854,39 -20.75682,21.45 -38.2195,38.97614 -38.80596,38.94697 -0.58645,-0.0292 -18.39127,-21.92794 -39.56627,-48.66395 -21.175,-26.736 -39.26592,-49.08373 -40.20204,-49.6616 -0.93612,-0.57787 -1.93782,-0.81489 -2.226,-0.52671 -0.28819,0.28819 -17.92989,51.23477 -39.20379,113.21463 -21.2739,61.97986 -38.9472,112.67918 -39.27399,112.66515 -0.3268,-0.014 -34.40211,-51.42653 -75.72291,-114.25 -54.13942,-82.31269 -75.63749,-114.22449 -76.94978,-114.22449 -1.38334,0 -19.30833,31.60796 -74.57414,131.5 -40.0142,72.325 -72.77429,132.25023 -72.80022,133.16718 -0.0516,1.82426 -2.73081,0.87679 61.81599,21.86024 26.78292,8.70684 37.66933,11.84013 38.44448,11.06498 0.59475,-0.59475 3.89179,-11.27179 7.32676,-23.72676 3.43497,-12.45497 6.65794,-23.05794 7.16216,-23.56216 1.03579,-1.03579 64.13902,-3.42593 66.50269,-2.5189 0.83976,0.32224 7.4782,10.51504 14.75208,22.65066 8.52489,14.22278 13.8007,22.06476 14.84439,22.06476 0.89053,0 22.99082,-8.09838 49.11174,-17.9964 26.12092,-9.89802 47.75685,-17.99802 48.07984,-18 0.323,-0.002 14.498,8.99488 31.5,19.99303 17.00201,10.99815 31.68291,19.99815 32.62423,20 1.37092,0.003 4.75378,-9.19999 17,-46.24663 8.40868,-25.4375 15.72118,-46.25 16.25,-46.25 0.52883,0 12.11804,17.08565 25.75382,37.9681 13.63578,20.88246 25.40132,38.5771 26.14565,39.32143 1.13777,1.13777 1.57847,1.12818 2.76685,-0.0602 0.77744,-0.77744 10.5926,-17.47179 21.81147,-37.09856 11.21887,-19.62676 20.85644,-35.5322 21.41683,-35.3454 0.56039,0.1868 8.62201,23.14901 17.91472,51.02713 13.82599,41.47795 17.21764,50.6875 18.66698,50.6875 0.97413,0 18.37413,-13.5289 38.66666,-30.06422 z M 109.56682,420.68365 c -0.009,-2.37171 18.32213,-42.81083 19.26371,-42.49697 1.23805,0.41268 13.87701,34.80049 13.50358,36.74026 -0.21058,1.09384 -4.29672,2.21619 -15.27507,4.19566 -17.64742,3.18195 -17.48628,3.16757 -17.49222,1.56105 z m 616.50462,105.80298 c 28.0561,-4.93342 55.1242,-17.39415 72.6299,-33.43499 31.567,-28.92539 53.0224,-73.84982 55.7217,-116.67267 1.4919,-23.66875 -1.3029,-44.96118 -8.8946,-67.76516 -6.6023,-19.83186 -11.6602,-28.4622 -23.9116,-40.80016 -14.761,-14.86546 -28.6215,-22.56987 -50.3137,-27.96715 -12.134,-3.01909 -32.5463,-3.66465 -45.8366,-1.44963 -37.4097,6.2349 -78.6357,29.64971 -104.43032,59.31248 -36.67564,42.17548 -48.80549,93.26487 -34.39531,144.86867 3.24648,11.62584 11.37418,29.65923 17.60651,39.06456 16.37589,24.71319 45.08382,41.76401 77.82402,46.22283 9.4938,1.29294 32.9939,0.55654 44,-1.37878 z m -39.5,-79.2021 c -4.7929,-1.65477 -10.356,-5.32103 -13.2867,-8.75648 -3.5822,-4.19893 -7.637,-13.49252 -8.7995,-20.16803 -1.4471,-8.3097 -0.6292,-26.55395 1.5486,-34.5447 6.2065,-22.77284 21.6219,-40.84737 42.5376,-49.87524 7.4232,-3.20408 22.5061,-3.99549 29.824,-1.56489 18.3155,6.08344 27.4833,31.03199 21.1348,57.51491 -2.2987,9.58922 -8.7561,23.90968 -14.7839,32.78596 -7.9717,11.73891 -22.8156,22.36622 -35.1749,25.18308 -6.5588,1.49484 -17.821,1.21348 -23,-0.57461 z m -788.70053,73.71817 c 46.74937,-9.35171 75.43786,-32.35022 85.96172,-68.91238 2.95534,-10.2675 3.15685,-35.08413 0.36666,-45.15667 -5.1071,-18.43658 -18.77672,-35.49342 -37.0404,-46.21872 -19.66314,-11.54712 -39.2476,-18.33216 -64.57095,-22.37061 -11.32948,-1.80678 -16.38355,-3.97275 -16.84363,-7.21849 -1.28069,-9.03504 18.17079,-15.73444 38.19475,-13.15486 12.76441,1.64437 25.07916,4.92503 39.42305,10.50236 7.29163,2.8352 12.64529,4.40912 13.16255,3.86965 1.25304,-1.30687 19.94187,-75.51915 19.38403,-76.97287 -0.88453,-2.30504 -20.3686,-8.33936 -35.28097,-10.9267 -46.16987,-8.0106 -90.88757,0.14398 -118.7758,21.6596 -17.08531,13.18122 -29.69112,33.19224 -33.82141,53.68959 -2.38383,11.83019 -1.62282,32.09229 1.53986,40.99908 8.54177,24.05554 34.56502,43.78384 71.95273,54.54756 14.16507,4.07805 24.46564,8.77546 26.6912,12.17209 1.11043,1.69475 1.42953,3.62268 1.02479,6.19169 -1.25714,7.97955 -11.94592,12.57718 -29.16765,12.54605 -13.45039,-0.0243 -26.39496,-3.41144 -47.77832,-12.50186 -7.07727,-3.00866 -10.08042,-3.85482 -10.872,-3.06324 -1.45345,1.45345 -24.80023,67.15107 -24.82802,69.86579 -0.017,1.66263 1.47896,2.7871 6.98067,5.24711 16.13557,7.21479 37.72135,13.53849 56.87444,16.66174 12.96615,2.11436 43.4369,1.3418 57.4227,-1.45591 z"
         id="path4194"
         inkscape:connector-curvature="0"
         sodipodi:nodetypes="sscsscssscssccsscccssscscsssscccscsssscsscscscscssssscccccsssssssssssssssssssssssssssssscsscssssssssscccsssssssssssssssscscsssssssscsscsssscccsssscccsccscsccsscccssccscscccscsscscsssssscsssssccsssscccscsscscscscsssccsccsscscsssccsscssscssscccsccsscssssssscsccssssscscscsssssssssssccsscscscsccscscsscsssscsscscssssscsscssscsssscsssscsssssssssssscscsssssssssscssscssssssssssssscsssssssssssssssssssssssssssscsss" />
    </g>
  </g>
</svg>
