<svg xmlns:dc="http://purl.org/dc/elements/1.1/" xmlns:cc="http://creativecommons.org/ns#" xmlns:rdf="http://www.w3.org/1999/02/22-rdf-syntax-ns#" xmlns:svg="http://www.w3.org/2000/svg" xmlns="http://www.w3.org/2000/svg" viewBox="0 0 2000 488" height="39" width="151" version="1.1" id="svg4136">
  <metadata id="metadata4142">
    <rdf:rdf>
      <cc:work rdf:about="">
        <dc:format>image/svg+xml</dc:format>
        <dc:type rdf:resource="http://purl.org/dc/dcmitype/StillImage"></dc:type>
        <dc:title></dc:title>
      </cc:work>
    </rdf:rdf>
  </metadata>
  <defs id="defs4140"></defs>
  <path id="path4206" d="M 51.285589,483.16022 C 34.322874,479.05347 16.549112,464.65725 8.791925,448.74161 3.3414576,437.55873 1.6291976,430.37521 1.6291976,418.69147 c 0,-26.50674 14.0488244,-49.13696 37.5000004,-60.40599 9.577736,-4.6024 19.088391,-6.32447 38.500001,-6.97108 34.609541,-1.15286 56.147121,-8.68943 73.137891,-25.5929 7.47589,-7.43748 9.31964,-9.99835 13.70579,-19.0367 2.78735,-5.74375 5.99331,-13.81819 7.12435,-17.94319 2.96447,-10.81162 5.03197,-28.22905 5.03197,-42.39125 0,-14.70639 2.12696,-24.31796 7.73563,-34.95674 4.8416,-9.18377 17.3262,-21.89524 25.98907,-26.46135 11.98564,-6.31751 16.26664,-7.30869 35.67079,-8.25886 27.84846,-1.36366 41.01322,-3.72038 56.2957,-10.07792 32.04902,-13.33245 49.29413,-46.08579 49.30599,-93.646044 0.006,-23.18887 5.63618,-37.92908 19.95888,-52.25178 6.88058,-6.88057 10.19875,-9.34432 17.04394,-12.65513 4.675,-2.2611601 10.975,-4.7126101 14,-5.4476601 8.04793,-1.95557 26.1364,-1.66691 33.5,0.53461 20.99781,6.2778001 37.32228,21.5292301 45.35161,42.3705701 2.39467,6.21571 2.59725,7.95055 2.59725,22.24155 0,14.29099 -0.20258,16.025843 -2.59725,22.241553 -6.52211,16.929131 -17.86663,29.703281 -33.07882,37.247391 -11.36364,5.63552 -20.45613,7.428 -37.92342,7.47617 -24.63728,0.0679 -49.15457,6.3041 -63.57094,16.16974 -7.06399,4.83414 -15.02961,12.63495 -19.26371,18.86515 -11.59571,17.06232 -16.27109,35.07221 -17.91242,69 -1.0015,20.70203 -2.26472,26.20886 -8.64213,37.67421 -4.51041,8.10885 -15.59857,19.44153 -23.62557,24.14658 -11.72051,6.87 -18.20618,8.35937 -40.3346,9.2624 -28.52429,1.16403 -42.16691,4.10716 -59,12.72809 -14.90926,7.63565 -27.51548,21.74846 -34.19235,38.27874 -5.87842,14.5535 -9.30765,35.34175 -9.30765,56.4237 0,19.73622 -5.92442,34.36417 -19.48524,48.11092 -6.73274,6.82504 -9.53436,8.85103 -17.514761,12.66578 -5.225,2.49763 -11.88465,5.02904 -14.79922,5.62536 -7.27284,1.48802 -24.46379,1.21707 -31.54439,-0.49717 z" style="fill:#ef8737;fill-opacity:1"></path>
  <path id="path4204" d="m 226.6292,483.17062 c -23.68534,-6.19853 -43.29524,-26.39003 -48.54444,-49.98418 -2.28168,-10.25568 -1.60829,-26.19286 1.49762,-35.44483 6.71656,-20.0074 22.43265,-35.72814 42.55642,-42.56898 7.03151,-2.39028 10.2105,-2.80884 26.4904,-3.48784 37.58572,-1.56763 58.48716,-8.24845 75.49322,-24.13024 18.06171,-16.86764 25.80781,-38.77159 27.51773,-77.81294 0.57452,-13.11761 1.39902,-21.30016 2.51906,-25 7.87524,-26.01421 30.21724,-44.94582 56.51462,-47.88795 23.53401,-2.63298 45.15083,6.3435 60.08344,24.94988 9.48158,11.81427 13.83215,24.73015 13.85715,41.13885 0.0195,12.78809 -1.24085,18.39722 -6.68052,29.73173 -8.53649,17.78726 -25.97084,31.62749 -44.8047,35.56814 -3.85,0.80554 -12.4,1.48122 -19,1.50151 -38.3495,0.11788 -67.17091,10.92317 -83.62969,31.35319 -13.26921,16.47086 -19.07912,36.93032 -20.78237,73.18472 -0.70121,14.92535 -1.32771,20.18888 -2.94419,24.73523 -3.89404,10.95199 -8.35038,18.00387 -16.60723,26.27985 -9.07471,9.09574 -19.76957,15.34504 -30.65056,17.90996 -8.04581,1.8966 -25.57442,1.87735 -32.88596,-0.0361 z" style="fill:#e53935;fill-opacity:1"></path>
  <path id="path4150" d="M 53.129198,308.33319 C 29.304017,302.85842 9.637791,283.73498 3.6148296,260.18543 1.1930836,250.71649 0.9770346,235.73606 3.1391366,227.20171 8.694395,205.27374 25.250822,187.44925 47.353899,179.6005 c 4.472085,-1.58802 9.83706,-2.24876 23.7753,-2.92812 26.70793,-1.30177 40.519211,-3.75319 55.160111,-9.79061 19.01706,-7.842 33.37259,-22.26678 41.03224,-41.23018 5.97495,-14.79249 9.30765,-34.561211 9.30765,-55.210614 0,-22.88216 8.1598,-41.08837 24.5,-54.66459 10.35425,-8.6028101 28.26644,-15.0347801 41.86987,-15.0347801 19.14767,0 39.85271,9.7361201 51.61231,24.2696201 10.20174,12.60816 14.98826,26.25415 14.98826,42.73038 0,11.51679 -1.91547,20.190583 -6.51976,29.523283 -6.57318,13.323581 -17.14607,23.817991 -31.00513,30.774981 -9.05104,4.54346 -15.77453,5.75522 -36.94555,6.6586 -21.22441,0.90567 -30.86356,2.42196 -44.09589,6.93651 -12.79457,4.36521 -20.91975,9.43743 -30.46181,19.0161 -17.34934,17.4159 -24.19054,38.03457 -25.89561,78.04675 -0.68378,16.04576 -1.13474,19.53182 -3.34767,25.87838 -3.6317,10.4155 -8.14859,17.54782 -16.23259,25.63183 -13.0333,13.03329 -25.759341,18.50652 -44.466431,19.12418 -7.5122,0.24804 -13.58059,-0.0984 -17.500001,-0.99903 z" style="fill:#f4bd38;fill-opacity:1"></path>
  <path d="m 1779.6291,172.74161 0,-12 6.5,0 6.5,0 0,12 0,12 -6.5,0 -6.5,0 0,-12 z m 158.3325,187.1891 c -9.3862,-3.31657 -16.2451,-10.13052 -19.0187,-18.89401 -0.9381,-2.96372 -1.7209,-10.61947 -2.0496,-20.04509 l -0.5319,-15.25 6.5034,0 6.5034,0 0.4785,13.25 c 0.6442,17.84094 2.9659,23.1435 12.2824,28.05213 6.0828,3.20485 18.4218,3.04431 24.4613,-0.31826 2.4537,-1.36613 5.4651,-3.97413 6.6919,-5.79555 4.8429,-7.19009 5.654,-24.80968 1.5102,-32.80763 -2.2711,-4.38343 -10.7551,-12.83669 -26.1662,-26.07141 -5.7765,-4.96078 -12.1372,-10.8287 -14.1348,-13.03983 -8.9612,-9.91896 -12.3693,-20.29547 -11.6401,-35.43984 0.9538,-19.80746 9.6016,-28.81137 29.2777,-30.48326 11.7814,-1.00108 22.9209,2.22555 28.6964,8.31207 5.6055,5.90741 7.2222,11.54445 7.6262,26.59158 l 0.3692,13.75 -6.4461,0 -6.4461,0 -0.5895,-10.75 c -0.3243,-5.9125 -1.1291,-12.325 -1.7884,-14.25 -2.521,-7.36057 -8.194,-11 -17.1462,-11 -9.6419,0 -15.0078,2.75065 -18.532,9.5 -2.4625,4.71596 -2.1303,18.73268 0.5894,24.86653 2.5687,5.79331 12.545,15.9522 29.6323,30.17448 18.8733,15.7089 22.8599,23.11337 22.8599,42.45899 0,18.8472 -4.8199,28.93611 -16.7172,34.99189 -6.6194,3.36933 -7.371,3.5183 -19,3.76563 -9.6544,0.20534 -13.155,-0.11247 -17.2754,-1.56842 z m -78.2487,-157.07719 c -1.1292,-0.005 -2.2889,0.0186 -3.4785,0.0723 -14.4295,0.65044 -23.5826,5.91795 -29.0567,16.7207 -4.3953,8.67411 -4.7016,13.36642 -4.3652,67.09571 0.3146,50.24 0.3292,50.52574 2.6152,55.5 3.8323,8.33882 12.4636,15.89697 21.2012,18.56445 1.375,0.41977 6.871,0.80231 12.2129,0.84961 12.103,0.10711 19.0361,-2.19706 25.8789,-8.59766 7.7928,-7.28931 9.3008,-12.02593 9.7246,-30.5664 l 0.3594,-15.75 -6.5879,0 -6.5879,0 0,11.96093 c 0,9.60988 -0.4025,13.0414 -2.0488,17.44141 -3.617,9.66744 -11.0573,14.14101 -22.3203,13.42383 -8.0859,-0.51487 -13.3953,-3.3229 -16.8633,-8.91797 -3.9263,-6.33438 -4.7676,-12.60157 -4.7676,-35.54492 l 0,-20.36328 29.5703,0 29.5703,0 -0.3515,-27.75 c -0.3034,-23.90539 -0.608,-28.44272 -2.1953,-32.75 -5.3613,-14.5483 -15.5714,-21.30763 -32.5098,-21.38867 z m -1.9102,11.9707 c 6.2848,-0.18826 12.6877,1.87214 16.5274,6.04883 1.2106,1.3169 3.2353,4.63771 4.498,7.38086 2.1514,4.67356 2.2989,6.24732 2.2989,24.98828 l 0,0 0,20 -22.0644,0.26758 c -12.1356,0.14775 -22.3731,-0.0391 -22.75,-0.41602 -1.1088,-1.10885 -0.7834,-31.45136 0.4062,-37.88672 1.357,-7.34053 3.9082,-12.44488 7.8965,-15.80078 3.4813,-2.92937 8.2974,-4.43561 13.1855,-4.58203 z m -78.1736,67.91739 0,-79 6.5,0 6.5,0 0,79 0,79 -6.5,0 -6.5,0 0,-79 z m -256,-32 0,-111 7,0 7,0 0,111 0,111 -7,0 -7,0 0,-111 z m -205,32 0,-79 6.5,0 6.5,0 0,7.197 0,7.19701 3.0186,-4.10473 c 6.2193,-8.45682 16.8749,-12.92338 28.7959,-12.07044 11.7319,0.83941 20.1991,6.26792 24.5974,15.76994 2.0454,4.41907 2.0937,5.93595 2.3643,74.26122 l 0.2762,69.75 -6.4927,0 -6.4927,0 -0.2835,-67.25 -0.2835,-67.25 -2.7359,-4.65395 c -8.0401,-13.67696 -30.8415,-11.1012 -39.7862,4.49444 l -2.9591,5.15951 -0.01,64.75 -0.01,64.75 -6.5,0 -6.5,0 0,-79 z m -105,-32 0,-111 6.5,0 6.5,0 0,37.5 c 0,20.625 0.2872,37.5 0.6382,37.5 0.351,0 2.6344,-1.8401 5.0743,-4.08911 7.1666,-6.60598 12.1764,-8.4119 23.2875,-8.39462 7.9618,0.0124 10.2792,0.39915 14.3127,2.38883 6.3626,3.13866 10.4561,7.37792 13.6043,14.08881 l 2.583,5.50609 0.289,68.75 0.2889,68.75 -7.0389,0 -7.039,0 0,-63.8185 c 0,-70.89115 -0.044,-71.42543 -6.3943,-77.77577 -5.2569,-5.25697 -12.433,-6.5371 -21.5192,-3.83879 -7.1518,2.12388 -13.4035,7.99157 -16.0496,15.06389 -1.9694,5.26369 -2.0369,7.51514 -2.0369,67.90668 l 0,62.46249 -6.5,0 -6.5,0 0,-111 z m -164.5002,-47.49942 c -11.0979,0 -12.4253,0.20849 -17.6601,2.77929 -10.5345,5.17328 -16.0648,13.63845 -17.9219,27.4375 -1.4903,11.07396 -0.6988,100.46719 0.9336,105.45899 3.0662,9.37615 12.1101,18.1369 22.0117,21.32031 6.087,1.95496 21.7553,1.36781 28.625,-1.07422 6.9904,-2.48495 14.5365,-10.23745 17.4746,-17.95312 1.8404,-4.83294 2.3711,-8.68093 2.791,-20.21875 l 0.5176,-14.25 -7.1367,0 -7.1387,0 0,12.75 c -0.01,11.32199 -0.2768,13.32326 -2.3926,17.86719 -4.0682,8.73712 -12.7288,13.22081 -23.0469,11.93164 -9.3671,-1.17034 -16.1396,-6.80793 -18.5351,-15.43164 -0.5527,-1.98971 -1.0098,-14.07969 -1.0098,-26.86719 l -0.01,-23.25 29.5,0 29.5,0 -0.01,-19.25 c -0.017,-39.16844 -3.8534,-51.11572 -18.7676,-58.43946 -5.3091,-2.60709 -6.5949,-2.81054 -17.7246,-2.81054 z m -0.4082,11.63476 c 6.3708,-0.12265 11.4096,1.76747 15.2559,5.71485 6.4204,6.5892 7.0446,9.26702 7.4589,31.90039 l 0.3711,20.25 -22.6601,0 -22.6621,0 0.3222,-20.78125 c 0.3104,-20.00871 0.4174,-20.96739 2.877,-25.74219 3.4275,-6.65363 8.8846,-10.40847 16.2246,-11.16602 0.9649,-0.0996 1.9024,-0.15826 2.8125,-0.17578 z m -107.0915,42.86466 0,-104 -19,0 -19,0 0,-7 0,-7 46.5,0 46.49994,0 0,7 0,7 -19.4999,0 -19.5,0 0,104 0,104 -8.00004,0 -8,0 0,-104 z m 664.9997,-54.99942 c -16.3637,0 -28.1368,6.43856 -34.166,18.68554 l -3.334,6.77149 0,55.02148 0,55.02149 2.3633,5.22656 c 4.0435,8.94349 13.6159,16.0891 24.4062,18.21875 18.2373,3.59945 34.7202,-3.67436 42.1739,-18.61133 4.179,-8.37448 4.7136,-16.71535 4.3535,-67.83398 -0.3295,-46.77377 -0.3423,-47.02912 -2.707,-52.94141 -5.1678,-12.92046 -16.3991,-19.55859 -33.0899,-19.55859 z m 0.7969,13.10937 c 8.9986,0.13755 15.9433,4.90396 19.2012,13.61133 1.9005,5.07937 2.0019,7.78007 2.0019,52.7793 0,44.99923 -0.1014,47.69797 -2.0019,52.77734 -2.1301,5.69318 -5.4742,9.4734 -10.7227,12.12109 -1.7737,0.89479 -5.8237,1.84327 -9,2.10743 -11.1437,0.92678 -19.6029,-4.19797 -23.002,-13.93164 -1.5994,-4.5802 -1.7734,-9.66146 -1.7734,-52.07422 0,-43.18401 0.1502,-47.43186 1.8535,-52.32031 2.4164,-6.93535 7.2242,-11.67984 13.8203,-13.63868 3.3959,-1.00844 6.6235,-1.47749 9.6231,-1.43164 z m -148.1953,-12.60937 c -10.9846,0 -12.6191,0.24267 -17.7207,2.63476 -7.6178,3.57189 -13.2679,8.91652 -16.6016,15.70508 l -2.7793,5.66016 -0.2832,53.8789 c -0.3141,59.72815 -0.2426,60.52919 6.043,68.70118 3.8733,5.03567 12.1269,9.90336 19.7207,11.62695 7.2955,1.65592 18.4398,0.85457 25.6465,-1.8418 7.7604,-2.90353 15.223,-10.33673 18.4687,-18.39648 l 2.4043,-5.96875 0.2852,-52.37696 c 0.3145,-57.96191 0.2832,-58.31633 -6.0254,-67.74023 -2.5274,-3.77546 -4.8073,-5.6542 -10.1582,-8.375 -6.7602,-3.43741 -7.1429,-3.50781 -19,-3.50781 z m -1.1035,12.67383 c 2.3927,-0.0709 4.8054,0.16788 7.125,0.75195 6.7687,1.7044 10.2615,4.59723 13.2558,10.98242 l 2.6211,5.5918 0,49 0,49 -2.6601,5.67578 c -3.0239,6.45029 -7.6496,10.11273 -14.8399,11.75 -5.7771,1.31547 -8.5315,1.24262 -13.6601,-0.36133 -6.1444,-1.92165 -9.8173,-4.9536 -12.4727,-10.29883 l -2.3672,-4.76562 -0.2969,-46.79492 c -0.3237,-51.13262 0.047,-55.40995 5.3848,-62.40821 3.7384,-4.90122 10.732,-7.91026 17.9102,-8.12304 z m -320.6277,145.32301 c -10.5647,-3.39511 -18.7577,-11.90233 -22.1479,-22.99742 -0.8969,-2.93507 -1.2223,-18.01002 -1.2223,-56.62302 l 0,-52.62302 4,-7.87698 c 4.5646,-8.9889 9.6441,-13.20017 19.3112,-16.01047 8.7504,-2.5438 22.9778,-1.52469 30.5438,2.18785 13.1869,6.47068 18.5587,19.64841 18.6272,45.69564 l 0.018,6.75 -6.8842,0 -6.8841,0 -0.4197,-13.25 c -0.3356,-10.59732 -0.8299,-14.15091 -2.4689,-17.75 -4.0535,-8.90124 -10.8425,-13.30425 -20.4245,-13.2464 -10.0016,0.0604 -17.0567,5.36262 -20.5779,15.46536 -1.6821,4.82596 -1.8407,9.15879 -1.8407,50.28104 0,41.14368 0.163,45.5915 1.9023,51.90226 3.2106,11.64962 10.1424,16.59774 23.2518,16.59774 10.3171,0 17.6965,-5.40206 20.3299,-14.88237 0.5527,-1.9897 1.0074,-10.25513 1.0104,-18.36763 l 0.01,-14.75 7.0971,0 7.0972,0 -0.3667,17.75 c -0.3501,16.94902 -0.4935,18.02645 -3.1781,23.87611 -3.4911,7.60717 -8.3852,12.46365 -16.1191,15.99549 -4.9804,2.27434 -7.632,2.77896 -16,3.04491 -6.9195,0.21991 -11.4663,-0.14267 -14.6602,-1.16909 z m -484.61894,1.98612 c -16.81222,-3.65218 -28.98402,-16.25597 -32.23045,-33.37436 -0.63354,-3.34061 -1.02071,-32.03897 -1.02071,-75.6577 0,-77.12605 0.17265,-79.81242 5.91867,-92.09137 7.59616,-16.23264 21.85662,-24.36011 42.74221,-24.36011 11.5519,0 18.23591,1.37238 25.60746,5.25781 15.99514,8.43077 20.73166,21.27067 20.73166,56.20003 l 0,20.54216 -14.5,0 -14.5,0 0,-19.8185 c 0,-22.12462 -1.02875,-27.94251 -5.72649,-32.38519 -5.4742,-5.17697 -16.02584,-5.9666 -22.90638,-1.71419 -1.80848,1.1177 -4.24475,4.06327 -5.54618,6.70559 l -2.32095,4.71229 0,74.5 c 0,72.52151 0.0531,74.60451 2,78.43547 2.98002,5.86388 6.39656,7.89948 14.07952,8.3887 4.8496,0.3088 7.58652,-0.0462 10.50629,-1.36286 8.32861,-3.75569 9.89576,-10.74956 9.90664,-44.21131 l 0.008,-23.25 14.59229,0 14.59228,0 -0.41639,28.25 c -0.38444,26.08264 -0.59188,28.78705 -2.70382,35.25 -5.62696,17.21958 -15.58662,26.5949 -31.93329,30.05975 -8.20684,1.73952 -18.65787,1.70989 -26.87991,-0.0762 z m 110.24884,1.1669 c -7.37216,-1.9144 -12.57853,-4.9271 -17.22391,-9.96674 -9.55242,-10.36316 -11.23525,-17.8267 -11.25873,-49.9337 l -0.0174,-23.75 13.5,0 13.5,0 0,23.3185 c 0,26.89506 0.89244,32.04459 6.20962,35.83076 4.30515,3.06554 12.48615,3.19939 16.46439,0.26937 4.98294,-3.66998 6.41805,-9.88879 5.98122,-25.91863 -0.57362,-21.04948 -2.88572,-26.43261 -26.41486,-61.5 -13.15796,-19.61038 -22.00203,-36.3029 -24.90165,-47 -1.32298,-4.88066 -1.75554,-10.23695 -1.7363,-21.5 0.0221,-12.92638 0.32845,-15.8184 2.21626,-20.92009 4.62833,-12.50782 10.8238,-19.68432 21.06131,-24.39626 4.8133,-2.21538 7.35637,-2.64612 17.71643,-3.00077 14.02064,-0.47996 20.27111,0.87152 28.01941,6.05841 3.77372,2.52621 5.65651,4.80865 8.37606,10.15403 l 3.50811,6.89532 0.32257,26.85468 0.32257,26.85468 -13.57257,0 -13.57257,0 0,-23.04966 c 0,-25.05272 -0.44353,-27.4645 -5.47206,-29.75565 -3.93051,-1.79087 -9.6191,-1.43647 -13.33812,0.83094 -5.24487,3.19772 -6.6546,7.65908 -6.62762,20.97437 0.0387,19.1017 2.7116,25.35073 25.51161,59.64397 8.266,12.4328 16.74242,26.03654 18.8365,30.23056 7.08665,14.19312 10.08969,26.5007 10.08969,41.35129 0,24.1853 -8.97482,42.42944 -24.26569,49.32762 -5.40963,2.44046 -7.68939,2.85105 -17.23431,3.10395 -6.74287,0.17865 -12.93506,-0.21105 -16,-1.00695 z M 1706.1289,202.375 c -7.187,-0.0111 -10.0072,0.43599 -14,2.22461 -6.4975,2.91065 -11.803,8.16245 -14.6875,14.53516 -2.3086,5.10042 -2.3124,5.17984 -2.6191,58.10742 -0.3259,56.25259 -0.035,60.93023 4.3222,69.52929 2.8606,5.64523 8.9263,11.27443 14.1035,13.0879 2.1344,0.74764 7.7059,1.36509 12.3809,1.37109 7.128,0.01 9.3877,-0.41252 14,-2.61524 3.025,-1.44469 7.075,-4.2434 9,-6.21875 1.925,-1.97536 3.8802,-3.60554 4.3457,-3.62304 1.4375,-0.0539 0.1241,43.92408 -1.4473,48.46094 -3.0657,8.85103 -12.5993,14.52677 -24.3261,14.48437 -12.3516,-0.0447 -20.5723,-7.28782 -20.5723,-18.12695 l 0,-2.84961 -6.9844,0 -6.9843,0 0.6054,6.25 c 1.3638,14.08277 7.8548,21.90573 21.8633,26.34765 5.6812,1.80146 19.1055,1.70432 25.5684,-0.18554 11.0294,-3.22516 19.0421,-10.34428 23.289,-20.69141 2.1331,-5.19709 2.1433,-5.66174 2.416,-102.4707 l 0.2754,-97.25 -6.5254,0 -6.5234,0 0,6.64453 0,6.64453 -5.3672,-5.07617 c -7.538,-7.12904 -11.2399,-8.56328 -22.1328,-8.58008 z m 3,11.94922 c 9.571,0.0115 16.51,4.63512 21.6406,14.41797 l 2.3594,4.5 0.2891,45.35937 c 0.3215,50.48553 0.2072,51.58689 -6.2032,60.25782 -2.196,2.97043 -5.2968,5.55648 -8.6953,7.25 -13.2666,6.61101 -26.6316,0.61937 -29.8164,-13.36719 -0.6175,-2.71167 -1.0338,-22.79767 -1.0488,-50.54102 -0.02,-38.31636 0.234,-47.03315 1.5176,-51.96094 2.863,-10.99185 9.0533,-15.92911 19.957,-15.91601 z m 280.5002,206.91739 0,-4.5 4.5,0 4.5,0 0,4.5 0,4.5 -4.5,0 -4.5,0 0,-4.5 z m -89,0 0,-4.5 5,0 5,0 0,4.5 0,4.5 -5,0 -5,0 0,-4.5 z m -34,-16 0,-20.5 4,0 c 2.8889,0 4,0.41667 4,1.5 0,1.96804 0.8021,1.89512 5.5,-0.5 2.5849,-1.31786 5.8972,-2 9.7114,-2 l 5.7886,0 0,4.01182 0,4.01182 -3.792,-0.60637 c -5.2232,-0.83523 -11.6838,1.10083 -14.1544,4.24169 -1.8472,2.34836 -2.0536,4.00428 -2.0536,16.4759 l 0,13.86514 -4.5,0 -4.5,0 0,-20.5 z m -24,16 0,-4.5 4.5,0 4.5,0 0,4.5 0,4.5 -4.5,0 -4.5,0 0,-4.5 z m 105.7205,-37.39005 c -8.443,0.0874 -14.0176,2.24614 -19.2168,7.25391 -11.3209,10.90397 -6.9032,29.25978 8.2031,34.08008 3.2074,1.02346 7.77,1.43669 13.793,1.25 7.7709,-0.24088 9.7368,-0.68074 14.3926,-3.22266 7.9261,-4.32739 10.6074,-8.89391 10.6074,-18.0625 0,-6.43066 -0.3358,-7.71306 -3.0098,-11.51758 -4.393,-6.25058 -10.6725,-9.1549 -20.9687,-9.69531 -1.3305,-0.0698 -2.5947,-0.0984 -3.8008,-0.0859 z m 0.8672,6.44532 c 14.6123,-0.32855 24.6395,12.89049 15.7187,23.49218 -1.3877,1.64922 -3.3675,3.44922 -4.4003,4.00196 -5.3846,2.88176 -15.7005,2.75806 -21.4082,-0.25782 -12.9058,-6.81939 -9.5198,-23.47683 5.4238,-26.68164 1.5938,-0.34181 3.1544,-0.5207 4.666,-0.55468 z m -158.5914,34.57536 c -5.7116,-1.82832 -10.9963,-4.78275 -10.9963,-6.14744 0,-0.43273 1.3674,-1.65259 3.0387,-2.71078 l 3.0388,-1.924 5.3449,2.69604 c 10.1686,5.12915 25.7129,4.731 29.3046,-0.75061 1.6216,-2.47484 1.5884,-2.62577 -1.0828,-4.92347 -1.5157,-1.30371 -3.7431,-2.38198 -4.95,-2.39617 -6.8956,-0.0811 -22.1142,-2.12283 -25.0897,-3.36609 -3.5881,-1.49919 -6.6045,-5.88746 -6.6045,-9.60811 0,-4.13638 3.0322,-8.12564 7.821,-10.28969 3.7372,-1.6888 6.6919,-2.12131 14.679,-2.14868 10.4877,-0.0359 17.6262,1.65697 22.3696,5.305 l 2.3696,1.82241 -3.4336,2.12206 -3.4335,2.12207 -4.3254,-2.14003 c -6.0864,-3.01133 -18.2384,-3.59386 -23.0438,-1.10465 -1.9233,0.99633 -3.6384,2.5706 -3.8111,3.49838 -0.5652,3.0352 3.8775,4.66945 15.8082,5.81501 6.325,0.60731 12.9555,1.56291 14.7344,2.12355 4.5939,1.44783 7.2656,5.26277 7.2656,10.37457 0,5.22442 -2.7654,9.03486 -8.4214,11.60367 -5.5683,2.52901 -22.7189,2.54413 -30.5823,0.027 z" style="fill:#0c243f;fill-opacity:1" id="path4146"></path>
</svg>