<?xml version="1.0" encoding="UTF-8"?>
<!DOCTYPE svg PUBLIC "-//W3C//DTD SVG 1.1//EN" "http://www.w3.org/Graphics/SVG/1.1/DTD/svg11.dtd">
<!-- Creator: CorelDRAW SE -->
<svg xmlns="http://www.w3.org/2000/svg" xml:space="preserve" width="29.913mm" height="29.2043mm" version="1.1" style="shape-rendering:geometricPrecision; text-rendering:geometricPrecision; image-rendering:optimizeQuality; fill-rule:evenodd; clip-rule:evenodd"
viewBox="0 0 466.81 455.75"
 xmlns:xlink="http://www.w3.org/1999/xlink">
 <defs>
  <style type="text/css">
   <![CDATA[
    .fil0 {fill:#C83676}
    .fil1 {fill:#C83676}
   ]]>
  </style>
 </defs>
 <g id="Vrstva_x0020_1">
  <metadata id="CorelCorpID_0Corel-Layer"/>
  <path class="fil0" d="M249.78 216.83c29.14,-7.81 59.1,9.49 66.9,38.63 7.81,29.14 -9.49,59.1 -38.63,66.9 -29.14,7.81 -59.09,-9.49 -66.9,-38.63 -7.81,-29.14 9.49,-59.1 38.63,-66.9zm-2.81 40.73c-8.14,9.5 -11.62,22.73 -8.12,35.72 2.3,8.55 -3,4.3 -6.36,-0.13 -2.94,-3.88 -5.16,-8.4 -6.5,-13.39 -3.27,-12.22 -0.4,-24.64 6.71,-33.98 10.61,-13.93 31.45,-8.29 14.26,11.78z"/>
  <path class="fil1" d="M233.41 0c128.91,0 233.41,102.02 233.41,227.88 0,125.85 -104.5,227.87 -233.41,227.87 -128.91,0 -233.41,-102.02 -233.41,-227.87 0,-125.85 104.5,-227.88 233.41,-227.88zm0 109.29c67.08,0 121.47,53.09 121.47,118.59 0,65.5 -54.38,118.59 -121.47,118.59 -67.08,0 -121.47,-53.09 -121.47,-118.59 0,-65.5 54.38,-118.59 121.47,-118.59z"/>
 </g>
</svg>
